<?xml version="1.0" encoding="UTF-8"?>
<!DOCTYPE svg PUBLIC "-//W3C//DTD SVG 1.1//EN" "http://www.w3.org/Graphics/SVG/1.1/DTD/svg11.dtd">
<!-- Creator: CorelDRAW 2020 (64-Bit) -->
<svg xmlns="http://www.w3.org/2000/svg" xml:space="preserve" width="1366px" height="768px" version="1.1" shape-rendering="geometricPrecision" text-rendering="geometricPrecision" image-rendering="optimizeQuality" fill-rule="evenodd" clip-rule="evenodd"
viewBox="0 0 1366 768"
 xmlns:xlink="http://www.w3.org/1999/xlink"
 xmlns:xodm="http://www.corel.com/coreldraw/odm/2003">
 <g id="Layer_x0020_1">
  <metadata id="CorelCorpID_0Corel-Layer"/>
  <g id="_1405598289584">
   <g>
    <ellipse fill="#F2F2F3" fill-rule="nonzero" cx="668.87" cy="296.81" rx="309.67" ry="20.5"/>
    <path fill="#2C412E" fill-rule="nonzero" d="M657.01 72.38c-50.46,0 -86.68,32.37 -86.68,107.9 0,85.6 36.22,108.25 86.68,108.25 50.45,0 88.83,-24.81 88.83,-108.25 0,-89.2 -38.38,-107.9 -88.83,-107.9zm0.33 187.74c-34.95,0 -53.2,-20.5 -53.2,-79.79 0,-52.31 19,-79.9 53.94,-79.9 34.95,0 53.95,18.12 53.95,79.9 0,57.79 -19.75,79.79 -54.69,79.79z"/>
    <path fill="#66AC3C" fill-rule="nonzero" d="M540.12 228.83l-20.86 0 0 -61.43c0,-6.79 -5.51,-12.3 -12.31,-12.3l-4.88 0c0,0 0,0 0,0 -6.8,0 -12.31,5.51 -12.31,12.3l0 61.43 -58.84 0c0,0 0,0 0,0 -3.87,0 -7.02,-3.15 -7.02,-7.02 0,-1.15 0.28,-2.27 0.81,-3.28l62.28 -117.87c0.93,-1.77 1.42,-3.75 1.42,-5.75 0,-4.76 -2.74,-9.09 -7.04,-11.12l-3.68 -1.74c-1.64,-0.77 -3.44,-1.18 -5.25,-1.18 -4.54,0 -8.71,2.5 -10.85,6.51l-75.96 142.08c-1.29,2.42 -1.97,5.12 -1.97,7.86 0,0 0,0 0,0l0 0c0,9.22 7.47,16.69 16.69,16.69 0,0 0,0 0,0l89.41 0 0 38.84c0,8.14 6.61,14.75 14.75,14.75l0 0c8.14,0 14.75,-6.61 14.75,-14.75l0 -38.84 20.86 0c6.95,0 12.58,-5.64 12.58,-12.59l0 0c0,0 0,0 0,0 0,-6.95 -5.63,-12.59 -12.58,-12.59l0 0z"/>
    <path fill="#66AC3C" fill-rule="nonzero" d="M926.39 228.83l-20.86 0 0 -61.43c0,-6.79 -5.51,-12.3 -12.3,-12.3 0,0 0,0 0,0l-4.89 0c0,0 0,0 0,0 -6.79,0 -12.3,5.51 -12.3,12.3l0 61.43 -58.84 0c0,0 0,0 0,0 -3.88,0 -7.02,-3.15 -7.02,-7.02 0,-1.15 0.28,-2.27 0.81,-3.28l62.28 -117.87c0.93,-1.77 1.42,-3.75 1.42,-5.75 0,-4.76 -2.75,-9.09 -7.05,-11.12l-3.67 -1.74c-1.65,-0.77 -3.44,-1.18 -5.26,-1.18 -4.54,0 -8.71,2.5 -10.85,6.51l-75.95 142.08c-1.29,2.42 -1.97,5.12 -1.97,7.86 0,0 0,0 0,0l0 0c0,9.22 7.47,16.69 16.68,16.69l89.42 0 0 38.84c0,8.14 6.6,14.75 14.75,14.75l0 0c8.14,0 14.74,-6.61 14.74,-14.75l0 -38.84 20.86 0c6.95,0 12.59,-5.64 12.59,-12.59l0 0c0,0 0,0 0,0 0,-6.95 -5.64,-12.59 -12.59,-12.59l0 0z"/>
    <path fill="none" fill-rule="nonzero" stroke="#335637" stroke-width="0.26" stroke-miterlimit="22.9256" d="M545.87 221.64l-20.86 0 0 -61.43c0,0 0,0 0,0 0,-6.8 -5.51,-12.3 -12.3,-12.3l-4.89 0c-6.79,0 -12.3,5.5 -12.3,12.3l0 61.43 -58.84 0c0,0 0,0 0,0 -3.88,0 -7.02,-3.15 -7.02,-7.03 0,-1.14 0.28,-2.27 0.81,-3.28l62.27 -117.87c0.94,-1.76 1.43,-3.74 1.43,-5.74 0,-4.76 -2.75,-9.1 -7.05,-11.13l-3.68 -1.73c-1.64,-0.78 -3.43,-1.18 -5.25,-1.18 -4.54,0 -8.71,2.5 -10.85,6.5l-75.95 142.09c-1.29,2.42 -1.97,5.12 -1.97,7.86 0,0 0,0 0,0l0 0c0,9.21 7.47,16.68 16.68,16.68l89.42 0 0 38.85c0,8.14 6.6,14.74 14.74,14.74l0 0c8.15,0 14.75,-6.6 14.75,-14.74l0 -38.85 20.86 0c6.95,0 12.59,-5.63 12.59,-12.59l0 0c0,0 0,0 0,0 0,-6.95 -5.64,-12.58 -12.59,-12.58l0 0z"/>
    <path fill="none" fill-rule="nonzero" stroke="#335637" stroke-width="0.26" stroke-miterlimit="22.9256" d="M937.18 221.64l-20.86 0 0 -61.43c0,-6.8 -5.51,-12.3 -12.3,-12.3l-4.89 0c-6.79,0 -12.3,5.5 -12.3,12.3l0 61.43 -58.84 0c0,0 0,0 0,0 -3.88,0 -7.02,-3.15 -7.02,-7.03 0,-1.14 0.28,-2.27 0.81,-3.28l62.28 -117.87c0.93,-1.76 1.42,-3.74 1.42,-5.74 0,-4.76 -2.75,-9.1 -7.05,-11.13l-3.67 -1.73c-1.65,-0.78 -3.44,-1.18 -5.26,-1.18 -4.54,0 -8.71,2.5 -10.85,6.5l-75.95 142.09c-1.29,2.42 -1.97,5.12 -1.97,7.86 0,0 0,0 0,0l0 0c0,9.21 7.47,16.68 16.68,16.68l89.42 0 0 38.85c0,8.14 6.6,14.74 14.75,14.74l0 0c8.14,0 14.74,-6.6 14.74,-14.74l0 -38.85 20.86 0c6.95,0 12.59,-5.63 12.59,-12.59l0 0c0,0 0,0 0,0 0,-6.95 -5.64,-12.58 -12.59,-12.58l0 0z"/>
    <path fill="none" fill-rule="nonzero" stroke="#335637" stroke-width="0.26" stroke-miterlimit="22.9256" d="M668.52 65.9c-50.46,0 -86.68,32.37 -86.68,107.9 0,85.6 36.22,108.26 86.68,108.26 50.45,0 88.83,-24.82 88.83,-108.26 0,-89.19 -38.38,-107.9 -88.83,-107.9zm0.33 187.75c-34.95,0 -53.2,-20.5 -53.2,-79.79 0,-52.32 19,-79.9 53.94,-79.9 34.95,0 53.95,18.12 53.95,79.9 0,57.79 -19.75,79.79 -54.69,79.79z"/>
    <path fill="#62B971" fill-rule="nonzero" d="M942.57 220.63c1.33,0.48 2.75,0.74 4.17,0.74 6.75,0 12.22,-5.48 12.22,-12.22 0,-6.75 -5.47,-12.22 -12.22,-12.22 -0.85,0 -1.71,0.09 -2.54,0.27l0.3 6.29 -2.97 -5.39c-2.92,1.37 -5.18,3.85 -6.28,6.88 -0.38,1.06 -0.62,2.18 -0.7,3.3 -0.02,0.29 -0.03,0.58 -0.03,0.87 0,5.14 3.22,9.73 8.05,11.48l0 0z"/>
    <path fill="none" fill-rule="nonzero" stroke="#335637" stroke-width="0.26" stroke-miterlimit="22.9256" d="M957.29 293.57c-1.05,-5.35 3.5,-10.09 8,-13.17 4.49,-3.09 9.74,-6.11 11.28,-11.34 2.2,-7.52 -4.36,-14.4 -9.47,-20.34 -3.79,-4.4 -7.05,-9.25 -9.7,-14.42 -1.06,-2.07 -2.04,-4.24 -2.32,-6.55 -0.4,-3.33 0.67,-6.65 1.74,-9.83 3.59,-10.58 7.43,-21.08 11.52,-31.49"/>
    <path fill="none" fill-rule="nonzero" stroke="#335637" stroke-width="0.26" stroke-miterlimit="22.9256" d="M943.07 219.01c1.34,0.49 2.75,0.74 4.18,0.74 6.74,0 12.21,-5.48 12.21,-12.22 0,-6.75 -5.47,-12.22 -12.21,-12.22 -0.86,0 -1.72,0.09 -2.55,0.27l0.3 6.29 -2.97 -5.39c-2.92,1.37 -5.18,3.85 -6.27,6.88 -0.39,1.06 -0.63,2.18 -0.7,3.3 -0.03,0.29 -0.04,0.58 -0.04,0.87 0,5.14 3.22,9.73 8.05,11.48l0 0z"/>
    <path fill="#62B971" fill-rule="nonzero" d="M955.8 184.26c1.41,-3.92 4.73,-6.84 8.79,-7.75l1.01 5.98 1.86 -6.28c6.68,0.1 12.04,5.54 12.04,12.21 0,6.75 -5.47,12.22 -12.22,12.22 -6.75,0 -12.22,-5.47 -12.22,-12.22 0,-1.42 0.25,-2.83 0.74,-4.16l0 0z"/>
    <path fill="none" fill-rule="nonzero" stroke="#335637" stroke-width="0.26" stroke-miterlimit="22.9256" d="M956.47 182.1c1.41,-3.91 4.73,-6.84 8.79,-7.75l1.01 5.98 1.86 -6.28c6.68,0.1 12.04,5.54 12.04,12.21 0,6.75 -5.47,12.22 -12.22,12.22 -6.74,0 -12.21,-5.47 -12.21,-12.22 0,-1.42 0.24,-2.83 0.73,-4.16l0 0z"/>
    <path fill="#62B971" fill-rule="nonzero" d="M964.95 248.84c1.33,0.48 2.75,0.73 4.17,0.73 6.74,0 12.21,-5.47 12.21,-12.21 0,-4.14 -2.09,-8 -5.57,-10.25l-1.43 4.82 -1.02 -6.05c-0.01,0 -0.02,-0.01 -0.03,-0.01 -1.33,-0.48 -2.75,-0.73 -4.17,-0.73 -6.75,0 -12.22,5.47 -12.22,12.21 0,5.15 3.22,9.74 8.06,11.49l0 0z"/>
    <path fill="none" fill-rule="nonzero" stroke="#335637" stroke-width="0.26" stroke-miterlimit="22.9256" d="M965.53 246.65c1.34,0.49 2.75,0.74 4.17,0.74 6.74,0 12.21,-5.47 12.21,-12.22 0,-4.14 -2.09,-8 -5.56,-10.25l-1.44 4.83 -1.01 -6.05c-0.01,-0.01 -0.02,-0.01 -0.04,-0.02 -1.33,-0.48 -2.75,-0.73 -4.17,-0.73 -6.74,0 -12.22,5.47 -12.22,12.22 0,5.14 3.23,9.73 8.06,11.48l0 0z"/>
    <path fill="#62B971" fill-rule="nonzero" d="M952.23 269.13c1.03,5.84 6.1,10.1 12.03,10.1 6.74,0 12.21,-5.47 12.21,-12.21 0,-6.75 -5.47,-12.21 -12.21,-12.21 -3.79,0 -7.36,1.75 -9.67,4.75l5.44 8.2 -7.44 -4.35c-0.36,1.16 -0.55,2.38 -0.55,3.6 0,0.71 0.07,1.42 0.19,2.12l0 0z"/>
    <path fill="none" fill-rule="nonzero" stroke="#335637" stroke-width="0.26" stroke-miterlimit="22.9256" d="M952.73 267.51c1.03,5.84 6.1,10.1 12.03,10.1 6.74,0 12.21,-5.47 12.21,-12.21 0,-6.75 -5.47,-12.21 -12.21,-12.21 -3.79,0 -7.36,1.76 -9.67,4.75l5.44 8.2 -7.44 -4.35c-0.36,1.16 -0.54,2.38 -0.54,3.6 0,0.71 0.06,1.42 0.18,2.12l0 0z"/>
    <path fill="#62B971" fill-rule="nonzero" d="M356.78 250.39c0.88,0.32 1.81,0.49 2.74,0.49 4.43,0 8.03,-3.6 8.03,-8.03 0,-4.43 -3.6,-8.03 -8.03,-8.03 -0.56,0 -1.12,0.06 -1.67,0.18l0.2 4.13 -1.96 -3.54c-1.91,0.9 -3.4,2.53 -4.12,4.52 -0.25,0.7 -0.41,1.43 -0.46,2.17 -0.01,0.19 -0.02,0.38 -0.02,0.57 0,3.38 2.12,6.39 5.29,7.54l0 0z"/>
    <path fill="none" fill-rule="nonzero" stroke="#335637" stroke-width="0.26" stroke-miterlimit="22.9256" d="M366.45 298.31c-0.69,-3.51 2.3,-6.62 5.25,-8.65 2.96,-2.02 6.41,-4.01 7.42,-7.45 1.45,-4.94 -2.87,-9.46 -6.23,-13.36 -2.49,-2.89 -4.63,-6.08 -6.37,-9.47 -0.76,-1.34 -1.27,-2.8 -1.52,-4.31 -0.27,-2.19 0.43,-4.37 1.14,-6.46 2.36,-6.95 4.89,-13.85 7.57,-20.69"/>
    <path fill="none" fill-rule="nonzero" stroke="#335637" stroke-width="0.26" stroke-miterlimit="22.9256" d="M357.11 249.33c0.88,0.32 1.81,0.48 2.74,0.48 4.44,0 8.03,-3.59 8.03,-8.03 0,-4.43 -3.59,-8.02 -8.03,-8.02 -0.56,0 -1.12,0.06 -1.67,0.17l0.2 4.14 -1.96 -3.54c-1.91,0.9 -3.4,2.52 -4.12,4.52 -0.25,0.69 -0.41,1.43 -0.46,2.17 -0.01,0.19 -0.02,0.38 -0.02,0.57 0,3.37 2.12,6.39 5.29,7.54l0 0z"/>
    <path fill="#62B971" fill-rule="nonzero" d="M365.47 226.49c0.93,-2.57 3.11,-4.49 5.78,-5.09l0.66 3.93 1.23 -4.12c4.38,0.06 7.9,3.64 7.9,8.02 0,4.43 -3.59,8.03 -8.02,8.03 -4.44,0 -8.03,-3.6 -8.03,-8.03 0,-0.93 0.16,-1.86 0.48,-2.74l0 0z"/>
    <path fill="none" fill-rule="nonzero" stroke="#335637" stroke-width="0.26" stroke-miterlimit="22.9256" d="M365.91 225.08c0.93,-2.57 3.11,-4.49 5.78,-5.09l0.66 3.92 1.22 -4.12c4.39,0.06 7.91,3.64 7.91,8.02 0,4.44 -3.59,8.03 -8.02,8.03 -4.44,0 -8.03,-3.59 -8.03,-8.03 0,-0.93 0.16,-1.86 0.48,-2.73l0 0z"/>
    <path fill="#62B971" fill-rule="nonzero" d="M371.48 268.93c0.88,0.31 1.81,0.48 2.74,0.48 4.43,0 8.03,-3.6 8.03,-8.03 0,-2.72 -1.38,-5.25 -3.66,-6.73l-0.94 3.17 -0.67 -3.98c-0.01,0 -0.01,0 -0.02,0 -0.88,-0.32 -1.81,-0.49 -2.74,-0.49 -4.44,0 -8.03,3.6 -8.03,8.03 0,3.38 2.12,6.4 5.3,7.55l-0.01 0z"/>
    <path fill="none" fill-rule="nonzero" stroke="#335637" stroke-width="0.26" stroke-miterlimit="22.9256" d="M371.87 267.49c0.87,0.32 1.8,0.48 2.73,0.48 4.44,0 8.03,-3.59 8.03,-8.02 0,-2.72 -1.38,-5.26 -3.66,-6.74l-0.94 3.17 -0.67 -3.97c-0.01,-0.01 -0.01,-0.01 -0.02,-0.01 -0.88,-0.32 -1.8,-0.48 -2.74,-0.48 -4.43,0 -8.02,3.59 -8.02,8.03 0,3.37 2.11,6.39 5.29,7.54l0 0z"/>
    <path fill="#62B971" fill-rule="nonzero" d="M363.13 282.26c0.67,3.83 4.01,6.63 7.9,6.63 4.43,0 8.02,-3.59 8.02,-8.02 0,-4.43 -3.59,-8.02 -8.02,-8.02 -2.49,0 -4.84,1.15 -6.36,3.12l3.58 5.39 -4.89 -2.86c-0.23,0.76 -0.36,1.56 -0.36,2.36 0,0.47 0.05,0.94 0.13,1.4l0 0z"/>
    <path fill="none" fill-rule="nonzero" stroke="#335637" stroke-width="0.26" stroke-miterlimit="22.9256" d="M363.46 281.2c0.67,3.83 4.01,6.63 7.9,6.63 4.43,0 8.02,-3.59 8.02,-8.02 0,-4.43 -3.59,-8.03 -8.02,-8.03 -2.49,0 -4.84,1.16 -6.35,3.13l3.57 5.38 -4.89 -2.86c-0.23,0.77 -0.36,1.57 -0.36,2.37 0,0.47 0.05,0.94 0.13,1.39l0 0.01z"/>
    <ellipse fill="#2C412E" fill-rule="nonzero" cx="633.83" cy="161.67" rx="9.98" ry="12.91"/>
    <ellipse fill="#2C412E" fill-rule="nonzero" cx="688.13" cy="161.96" rx="9.98" ry="12.91"/>
    <path fill="#2C412E" fill-rule="nonzero" d="M680.5 200.12c0,5.84 -8.15,10.57 -18.2,10.57 -10.05,0 -18.2,-4.73 -18.2,-10.57 0,-5.05 6.11,-9.28 14.28,-10.31 1.27,-0.17 2.56,-0.26 3.85,-0.26 0.02,0 0.05,0 0.07,0 0.03,0 0.07,0 0.1,0 2.16,0 4.33,0.24 6.44,0.71 6.82,1.52 11.66,5.37 11.66,9.86z"/>
    <ellipse fill="none" fill-rule="nonzero" stroke="#335637" stroke-width="0.26" stroke-miterlimit="22.9256" cx="636.18" cy="158.74" rx="9.98" ry="12.91"/>
    <ellipse fill="none" fill-rule="nonzero" stroke="#335637" stroke-width="0.26" stroke-miterlimit="22.9256" cx="690.48" cy="159.03" rx="9.98" ry="12.91"/>
    <ellipse fill="none" fill-rule="nonzero" stroke="#335637" stroke-width="0.26" stroke-miterlimit="22.9256" cx="664.65" cy="197.19" rx="18.2" ry="10.57"/>
    <path fill="#FEFEFE" fill-rule="nonzero" d="M669.05 191.14c0,0.01 0,0.01 0,0.02 0,0.73 -0.27,1.44 -0.77,1.97 -0.48,0.53 -1.16,0.83 -1.87,0.83l-5.87 0c-1.47,-0.05 -2.64,-1.26 -2.64,-2.74 0,-0.03 0,-0.05 0,-0.08 0,0 0,-0.01 0,-0.02 0,-0.56 0.17,-1.12 0.48,-1.59 1.27,-0.18 2.56,-0.27 3.85,-0.27 0.02,0 0.05,0 0.07,0 0.03,0 0.07,0 0.09,0 2.17,0 4.34,0.26 6.45,0.75 0.14,0.36 0.21,0.74 0.21,1.12 0,0 0,0.01 0,0.01l0 0z"/>
    <circle fill="#FEFEFE" fill-rule="nonzero" cx="636.18" cy="155.21" r="2.94"/>
    <circle fill="#FEFEFE" fill-rule="nonzero" cx="690.77" cy="155.21" r="2.94"/>
    <path fill="#66AC3C" fill-rule="nonzero" fill-opacity="0.301961" d="M696.64 182.8c0,-1.62 -1.31,-2.93 -2.93,-2.93 -1.62,0 -2.94,1.31 -2.94,2.93 0,1.63 1.32,2.94 2.94,2.94 1.62,0 2.93,-1.31 2.93,-2.94z"/>
    <path fill="#66AC3C" fill-rule="nonzero" fill-opacity="0.301961" d="M625.02 182.8c0,-1.62 -1.31,-2.93 -2.93,-2.93 -1.62,0 -2.94,1.31 -2.94,2.93 0,1.63 1.32,2.94 2.94,2.94 1.62,0 2.93,-1.31 2.93,-2.94z"/>
   </g>
   <g>
    <path fill="#F2F2F3" fill-rule="nonzero" d="M370.37 461.58c0,83.57 -49.68,112.75 -110.97,112.75 -61.28,0 -110.96,-29.18 -110.96,-112.75 0,-83.56 110.96,-189.87 110.96,-189.87 0,0 110.97,106.31 110.97,189.87z"/>
    <polygon fill="#335637" fill-rule="nonzero" points="255.36,561.55 256.5,491.61 303.79,405.09 256.68,480.64 257.19,449.19 289.78,386.59 257.32,440.87 257.32,440.87 258.24,384.31 293.15,334.47 258.39,375.42 258.96,271.71 255.35,409 255.65,403.33 220.16,349.02 255.08,414.21 251.77,477.37 251.68,475.7 210.76,418.54 251.55,481.62 251.14,489.52 251.06,489.64 251.1,490.29 242.71,650.55 253.92,650.55 255.26,567.77 295.95,504.84 "/>
    <path fill="#F2F2F3" fill-rule="nonzero" d="M700.52 495.81c0,68.41 -40.66,92.29 -90.82,92.29 -50.17,0 -90.83,-23.88 -90.83,-92.29 0,-68.4 90.83,-155.42 90.83,-155.42 0,0 90.82,87.02 90.82,155.42z"/>
    <polygon fill="#335637" fill-rule="nonzero" points="606.39,577.64 607.32,520.39 646.03,449.56 607.46,511.41 607.88,485.67 634.56,434.43 607.99,478.85 607.99,478.85 608.75,432.56 637.32,391.76 608.86,425.28 609.33,340.39 606.38,452.77 606.62,448.13 577.57,403.67 606.16,457.03 603.45,508.74 603.37,507.36 569.88,460.57 603.27,512.21 602.93,518.68 602.87,518.78 602.9,519.31 596.03,650.49 605.2,650.49 606.31,582.73 639.61,531.22 "/>
    <ellipse fill="#335637" fill-rule="nonzero" cx="387.31" cy="648.27" rx="306.9" ry="15.51"/>
    <ellipse fill="#335637" fill-rule="nonzero" cx="574.27" cy="673.9" rx="52.57" ry="2.66"/>
    <ellipse fill="#335637" fill-rule="nonzero" cx="384.06" cy="699.54" rx="52.57" ry="2.66"/>
    <ellipse fill="#335637" fill-rule="nonzero" cx="239.75" cy="678.04" rx="120.09" ry="6.07"/>
    <circle fill="#2C412E" fill-rule="nonzero" cx="134.13" cy="585.07" r="43.72"/>
    <rect fill="#2C412E" fill-rule="nonzero" transform="matrix(2.09139 0.024643 -0.024643 2.09139 113.806 619.144)" width="6.35" height="11.38"/>
    <rect fill="#2C412E" fill-rule="nonzero" transform="matrix(2.09139 0.024643 -0.024643 2.09139 140.367 619.457)" width="6.35" height="11.38"/>
    <ellipse fill="#2C412E" fill-rule="nonzero" transform="matrix(0.024643 -2.09139 2.09139 0.024643 124.59 643.345)" rx="1.98" ry="5.29"/>
    <ellipse fill="#2C412E" fill-rule="nonzero" transform="matrix(0.024643 -2.09139 2.09139 0.024643 151.157 643.104)" rx="1.98" ry="5.29"/>
    <circle fill="#FEFEFE" fill-rule="nonzero" cx="135.37" cy="574.02" r="14.94"/>
    <circle fill="#335637" fill-rule="nonzero" cx="135.37" cy="574.02" r="4.98"/>
    <path fill="#66AC3C" fill-rule="nonzero" d="M92.21 543.92c-3.35,-15.85 8.12,-31.69 25.62,-35.38 17.49,-3.69 34.38,6.16 37.73,22.01 3.34,15.85 -8.29,21.55 -25.79,25.24 -17.49,3.69 -34.22,3.98 -37.56,-11.87z"/>
    <path fill="#66AC3C" fill-rule="nonzero" d="M200.82 609.46c0,30.48 -18.12,41.12 -40.47,41.12 -0.52,0 -1.04,-0.01 -1.55,-0.02 -1.04,-0.02 -2.06,-0.07 -3.08,-0.14 -20.17,-1.43 -35.84,-12.61 -35.84,-40.96 0,-29.33 37.49,-66.35 40.3,-69.09l0.01 0c0.11,-0.11 0.16,-0.16 0.16,-0.16 0,0 40.47,38.77 40.47,69.25z"/>
    <path fill="#335637" fill-rule="nonzero" d="M158.88 645.92l14.8 -20.68 -14.84 22.95 -0.04 2.37c-1.04,-0.02 -2.06,-0.07 -3.08,-0.14l1.6 -30.49 -0.01 -0.24 0.02 -0.04 0.15 -2.88 -14.87 -23.01 14.92 20.85 0.04 0.61 1.2 -23.04 -12.73 -23.78 12.89 19.74 1.25 -47.77 0.01 -0.16 0 0.16 -0.21 37.66 12.68 -14.93 -12.73 18.18 -0.34 20.63 11.84 -19.8 -11.89 22.83 -0.19 11.47 17.19 -27.56 -17.25 31.56 -0.41 25.51z"/>
    <rect fill="#2C412E" fill-rule="nonzero" transform="matrix(1.99925 -0.614417 0.614417 1.99925 465.721 623.246)" width="6.35" height="11.38"/>
    <rect fill="#2C412E" fill-rule="nonzero" transform="matrix(1.99925 -0.614408 0.614408 1.99925 491.11 615.446)" width="6.35" height="11.38"/>
    <ellipse fill="#2C412E" fill-rule="nonzero" transform="matrix(1.99925 -0.614417 0.614417 1.99925 483.372 643.005)" rx="5.29" ry="1.98"/>
    <ellipse fill="#2C412E" fill-rule="nonzero" transform="matrix(1.99925 -0.614417 0.614417 1.99925 508.599 634.673)" rx="5.29" ry="1.98"/>
    <circle fill="#FEFEFE" fill-rule="nonzero" cx="472.49" cy="573.69" r="14.94"/>
    <circle fill="#335637" fill-rule="nonzero" cx="472.49" cy="573.69" r="4.98"/>
    <path fill="#66AC3C" fill-rule="nonzero" d="M396.72 603.88c0,27.98 -16.63,37.75 -37.15,37.75 -0.48,0 -0.95,-0.01 -1.43,-0.02 -0.95,-0.02 -1.89,-0.07 -2.82,-0.13 -18.51,-1.31 -32.9,-11.58 -32.9,-37.6 0,-26.93 34.41,-60.91 36.99,-63.42l0.01 -0.01c0.1,-0.09 0.15,-0.14 0.15,-0.14 0,0 37.15,35.59 37.15,63.57z"/>
    <path fill="#335637" fill-rule="nonzero" d="M358.21 637.35l13.59 -18.99 -13.62 21.07 -0.04 2.18c-0.95,-0.02 -1.89,-0.07 -2.82,-0.13l1.47 -27.99 -0.01 -0.22 0.02 -0.04 0.14 -2.64 -13.66 -21.12 13.7 19.13 0.03 0.57 1.11 -21.15 -11.69 -21.83 11.83 18.12 1.15 -43.85 0.01 -0.15 0 0.14 -0.19 34.58 11.63 -13.71 -11.68 16.69 -0.31 18.93 10.87 -18.17 -10.91 20.96 -0.18 10.53 15.78 -25.3 -15.84 28.97 -0.38 23.42z"/>
    <path fill="#66AC3C" fill-rule="nonzero" d="M542.81 615.55c0,30.48 -18.12,41.12 -40.47,41.12 -0.52,0 -1.03,-0.01 -1.55,-0.02 -1.04,-0.02 -2.06,-0.07 -3.07,-0.14 -20.18,-1.43 -35.85,-12.62 -35.85,-40.96 0,-29.34 37.49,-66.35 40.3,-69.09l0.01 -0.01c0.11,-0.1 0.16,-0.15 0.16,-0.15 0,0 40.47,38.77 40.47,69.25z"/>
    <path fill="#335637" fill-rule="nonzero" d="M500.87 652l14.8 -20.68 -14.84 22.96 -0.04 2.37c-1.04,-0.02 -2.06,-0.07 -3.07,-0.14l1.59 -30.49 -0.01 -0.24 0.03 -0.04 0.15 -2.88 -14.88 -23.01 14.92 20.85 0.04 0.61 1.2 -23.04 -12.73 -23.78 12.89 19.73 1.25 -47.76 0.01 -0.16 0 0.15 -0.21 37.67 12.68 -14.93 -12.73 18.17 -0.34 20.63 11.84 -19.79 -11.89 22.83 -0.19 11.47 17.19 -27.56 -17.25 31.56 -0.41 25.5z"/>
    <ellipse fill="#2C412E" fill-rule="nonzero" transform="matrix(0.896282 -1.88976 1.88976 0.896282 457.711 601.402)" rx="3.28" ry="10.45"/>
    <ellipse fill="#2C412E" fill-rule="nonzero" transform="matrix(0.778141 -1.94139 1.94139 0.778141 120.7 598.635)" rx="3.28" ry="10.45"/>
   </g>
   <g>
    <path fill="#F2F2F3" fill-rule="nonzero" d="M896.76 511.54c0,61.47 -36.55,82.94 -81.63,82.94 -45.08,0 -81.63,-21.47 -81.63,-82.94 0,-61.48 81.63,-139.69 81.63,-139.69 0,0 81.63,78.21 81.63,139.69z"/>
    <polygon fill="#335637" fill-rule="nonzero" points="812.16,585.07 812.99,533.62 847.78,469.97 813.12,525.55 813.5,502.42 837.48,456.37 813.6,496.3 813.6,496.3 814.27,454.69 839.95,418.03 814.38,448.15 814.8,371.85 812.15,472.85 812.37,468.68 786.26,428.72 811.95,476.68 809.52,523.15 809.44,521.92 779.35,479.87 809.35,526.28 809.05,532.09 808.99,532.17 809.02,532.65 802.85,650.55 811.09,650.55 812.08,589.65 842.01,543.36 "/>
    <path fill="#F2F2F3" fill-rule="nonzero" d="M1285.58 495.81c0,68.41 -40.66,92.29 -90.83,92.29 -50.16,0 -90.82,-23.88 -90.82,-92.29 0,-68.4 90.82,-155.42 90.82,-155.42 0,0 90.83,87.02 90.83,155.42z"/>
    <polygon fill="#335637" fill-rule="nonzero" points="1191.45,577.64 1192.38,520.39 1231.09,449.56 1192.52,511.41 1192.94,485.67 1219.62,434.43 1193.05,478.85 1193.05,478.85 1193.8,432.56 1222.37,391.76 1193.92,425.28 1194.39,340.39 1191.44,452.77 1191.68,448.13 1162.63,403.67 1191.21,457.03 1188.51,508.74 1188.43,507.36 1154.94,460.57 1188.33,512.21 1187.99,518.68 1187.93,518.78 1187.95,519.31 1181.09,650.49 1190.26,650.49 1191.36,582.73 1224.67,531.22 "/>
    <ellipse fill="#335637" fill-rule="nonzero" cx="972.37" cy="648.27" rx="306.9" ry="15.51"/>
    <ellipse fill="#335637" fill-rule="nonzero" cx="1159.33" cy="673.9" rx="52.57" ry="2.66"/>
    <ellipse fill="#335637" fill-rule="nonzero" cx="969.12" cy="699.54" rx="52.57" ry="2.66"/>
    <ellipse fill="#335637" fill-rule="nonzero" cx="824.81" cy="678.04" rx="120.09" ry="6.07"/>
    <circle fill="#2C412E" fill-rule="nonzero" cx="1059.74" cy="584.6" r="43.72"/>
    <rect fill="#2C412E" fill-rule="nonzero" transform="matrix(1.99925 -0.614417 0.614417 1.99925 1050.78 623.246)" width="6.35" height="11.38"/>
    <rect fill="#2C412E" fill-rule="nonzero" transform="matrix(1.99925 -0.614408 0.614408 1.99925 1076.17 615.446)" width="6.35" height="11.38"/>
    <ellipse fill="#2C412E" fill-rule="nonzero" transform="matrix(1.99925 -0.614417 0.614417 1.99925 1068.43 643.005)" rx="5.29" ry="1.98"/>
    <ellipse fill="#2C412E" fill-rule="nonzero" transform="matrix(1.99925 -0.614417 0.614417 1.99925 1093.66 634.673)" rx="5.29" ry="1.98"/>
    <circle fill="#FEFEFE" fill-rule="nonzero" cx="1057.55" cy="573.69" r="14.94"/>
    <circle fill="#335637" fill-rule="nonzero" cx="1057.55" cy="573.69" r="4.98"/>
    <path fill="#66AC3C" fill-rule="nonzero" d="M1007.26 558.19c-8.02,-14.07 -1.92,-32.65 13.61,-41.51 15.54,-8.85 34.63,-4.61 42.65,9.46 8.02,14.08 -1.32,23.05 -16.86,31.9 -15.53,8.85 -31.38,14.23 -39.4,0.15z"/>
    <path fill="#66AC3C" fill-rule="nonzero" d="M981.77 603.88c0,27.98 -16.63,37.75 -37.14,37.75 -0.48,0 -0.95,-0.01 -1.43,-0.02 -0.95,-0.02 -1.89,-0.07 -2.82,-0.13 -18.52,-1.31 -32.9,-11.58 -32.9,-37.6 0,-26.93 34.41,-60.91 36.99,-63.42l0.01 -0.01c0.1,-0.09 0.15,-0.14 0.15,-0.14 0,0 37.14,35.59 37.14,63.57z"/>
    <path fill="#335637" fill-rule="nonzero" d="M943.27 637.35l13.59 -18.99 -13.62 21.07 -0.04 2.18c-0.95,-0.02 -1.89,-0.07 -2.82,-0.13l1.46 -27.99 -0.01 -0.22 0.03 -0.04 0.14 -2.64 -13.66 -21.12 13.7 19.13 0.03 0.57 1.11 -21.15 -11.69 -21.83 11.83 18.12 1.15 -43.85 0.01 -0.15 0 0.14 -0.2 34.58 11.64 -13.71 -11.68 16.69 -0.31 18.93 10.86 -18.17 -10.91 20.96 -0.17 10.53 15.78 -25.3 -15.84 28.97 -0.38 23.42z"/>
    <path fill="#66AC3C" fill-rule="nonzero" d="M1127.87 615.55c0,30.48 -18.12,41.12 -40.47,41.12 -0.52,0 -1.04,-0.01 -1.55,-0.02 -1.04,-0.02 -2.06,-0.07 -3.08,-0.14 -20.17,-1.43 -35.84,-12.62 -35.84,-40.96 0,-29.34 37.48,-66.35 40.3,-69.09l0.01 -0.01c0.1,-0.1 0.16,-0.15 0.16,-0.15 0,0 40.47,38.77 40.47,69.25z"/>
    <path fill="#335637" fill-rule="nonzero" d="M1085.92 652l14.8 -20.68 -14.83 22.96 -0.04 2.37c-1.04,-0.02 -2.06,-0.07 -3.08,-0.14l1.6 -30.49 -0.01 -0.24 0.02 -0.04 0.15 -2.88 -14.87 -23.01 14.92 20.85 0.03 0.61 1.21 -23.04 -12.73 -23.78 12.89 19.73 1.25 -47.76 0.01 -0.16 0 0.15 -0.21 37.67 12.67 -14.93 -12.73 18.17 -0.33 20.63 11.84 -19.79 -11.89 22.83 -0.19 11.47 17.19 -27.56 -17.25 31.56 -0.42 25.5z"/>
    <ellipse fill="#2C412E" fill-rule="nonzero" transform="matrix(0.896282 -1.88976 1.88976 0.896282 1042.77 601.402)" rx="3.28" ry="10.45"/>
   </g>
  </g>
 </g>
</svg>
