<?xml version="1.0" encoding="UTF-8"?>
<!DOCTYPE svg PUBLIC "-//W3C//DTD SVG 1.1//EN" "http://www.w3.org/Graphics/SVG/1.1/DTD/svg11.dtd">
<!-- Creator: CorelDRAW 2020 (64-Bit) -->
<svg xmlns="http://www.w3.org/2000/svg" xml:space="preserve" width="1366px" height="768px" version="1.1" shape-rendering="geometricPrecision" text-rendering="geometricPrecision" image-rendering="optimizeQuality" fill-rule="evenodd" clip-rule="evenodd"
viewBox="0 0 1366 768"
 xmlns:xlink="http://www.w3.org/1999/xlink"
 xmlns:xodm="http://www.corel.com/coreldraw/odm/2003">
 <defs>
   <clipPath id="id0" clip-rule="nonzero">
    <path d="M0 768l1366 0 0 -768 -1366 0 0 768z"/>
   </clipPath>
    <linearGradient id="id1" gradientUnits="userSpaceOnUse" x1="952.98" y1="519.06" x2="940.04" y2="284.63">
     <stop offset="0" stop-opacity="1" stop-color="#D3D9E1"/>
     <stop offset="1" stop-opacity="1" stop-color="#ECECFF"/>
    </linearGradient>
    <linearGradient id="id2" gradientUnits="userSpaceOnUse" x1="1164.55" y1="584.41" x2="1164.55" y2="343.07">
     <stop offset="0" stop-opacity="1" stop-color="#D3D9E1"/>
     <stop offset="1" stop-opacity="1" stop-color="#ECECFF"/>
    </linearGradient>
    <linearGradient id="id3" gradientUnits="userSpaceOnUse" x1="619.33" y1="654.14" x2="1241.53" y2="654.14">
     <stop offset="0" stop-opacity="1" stop-color="#283027"/>
     <stop offset="0.0313725" stop-opacity="1" stop-color="#154620"/>
     <stop offset="1" stop-opacity="1" stop-color="#109B10"/>
    </linearGradient>
    <clipPath id="id4">
     <path d="M996.96 323.81l-111.62 0 0 -95.79 111.62 0 0 95.79 0 0z"/>
    </clipPath>
    <linearGradient id="id5" gradientUnits="userSpaceOnUse" x1="760.38" y1="536.43" x2="720.37" y2="536.43">
     <stop offset="0" stop-opacity="1" stop-color="#2EA154"/>
     <stop offset="1" stop-opacity="1" stop-color="#6DC945"/>
    </linearGradient>
    <linearGradient id="id6" gradientUnits="userSpaceOnUse" x1="727.46" y1="569.83" x2="657.51" y2="569.83">
     <stop offset="0" stop-opacity="1" stop-color="#2EA154"/>
     <stop offset="1" stop-opacity="1" stop-color="#6DC945"/>
    </linearGradient>
    <linearGradient id="id7" gradientUnits="userSpaceOnUse" x1="723.08" y1="580.03" x2="668.5" y2="580.03">
     <stop offset="0" stop-opacity="1" stop-color="#2EA154"/>
     <stop offset="1" stop-opacity="1" stop-color="#6DC945"/>
    </linearGradient>
    <linearGradient id="id8" gradientUnits="userSpaceOnUse" x1="788.05" y1="524.65" x2="710.7" y2="524.65">
     <stop offset="0" stop-opacity="1" stop-color="#2EA154"/>
     <stop offset="1" stop-opacity="1" stop-color="#6DC945"/>
    </linearGradient>
    <linearGradient id="id9" gradientUnits="userSpaceOnUse" x1="733.19" y1="607.87" x2="696.65" y2="472.65">
     <stop offset="0" stop-opacity="1" stop-color="#2EA154"/>
     <stop offset="1" stop-opacity="1" stop-color="#6DC945"/>
    </linearGradient>
    <linearGradient id="id10" gradientUnits="userSpaceOnUse" x1="703.33" y1="707.55" x2="727.19" y2="604.69">
     <stop offset="0" stop-opacity="1" stop-color="#C9C4C1"/>
     <stop offset="1" stop-opacity="1" stop-color="#FFF6DE"/>
    </linearGradient>
    <linearGradient id="id11" gradientUnits="userSpaceOnUse" x1="698.72" y1="627.28" x2="757.38" y2="627.28">
     <stop offset="0" stop-opacity="1" stop-color="#C9C4C1"/>
     <stop offset="1" stop-opacity="1" stop-color="#FFF6DE"/>
    </linearGradient>
    <linearGradient id="id12" gradientUnits="userSpaceOnUse" x1="1101.08" y1="286.17" x2="1101.08" y2="186.77">
     <stop offset="0" stop-opacity="1" stop-color="#D3D9E1"/>
     <stop offset="1" stop-opacity="1" stop-color="#ECECFF"/>
    </linearGradient>
    <linearGradient id="id13" gradientUnits="userSpaceOnUse" x1="1238.76" y1="258.24" x2="1251.12" y2="258.24">
     <stop offset="0" stop-opacity="1" stop-color="#D3D9E1"/>
     <stop offset="1" stop-opacity="1" stop-color="#ECECFF"/>
    </linearGradient>
    <linearGradient id="id14" gradientUnits="userSpaceOnUse" x1="1234.34" y1="258.24" x2="1239.49" y2="258.24">
     <stop offset="0" stop-opacity="1" stop-color="#D3D9E1"/>
     <stop offset="1" stop-opacity="1" stop-color="#ECECFF"/>
    </linearGradient>
    <linearGradient id="id15" gradientUnits="userSpaceOnUse" x1="1203.26" y1="252.58" x2="1242.86" y2="252.58">
     <stop offset="0" stop-opacity="1" stop-color="#D3D9E1"/>
     <stop offset="1" stop-opacity="1" stop-color="#ECECFF"/>
    </linearGradient>
    <linearGradient id="id16" gradientUnits="userSpaceOnUse" x1="983.35" y1="155.84" x2="999.59" y2="155.84">
     <stop offset="0" stop-opacity="1" stop-color="#D1D7E0"/>
     <stop offset="1" stop-opacity="1" stop-color="#EBEBFF"/>
    </linearGradient>
    <linearGradient id="id17" gradientUnits="userSpaceOnUse" x1="983.35" y1="167.57" x2="999.59" y2="167.57">
     <stop offset="0" stop-opacity="1" stop-color="#D1D7E0"/>
     <stop offset="1" stop-opacity="1" stop-color="#EBEBFF"/>
    </linearGradient>
    <linearGradient id="id18" gradientUnits="userSpaceOnUse" x1="983.35" y1="179.31" x2="999.59" y2="179.31">
     <stop offset="0" stop-opacity="1" stop-color="#D1D7E0"/>
     <stop offset="1" stop-opacity="1" stop-color="#EBEBFF"/>
    </linearGradient>
    <linearGradient id="id19" gradientUnits="userSpaceOnUse" x1="1006.3" y1="155.84" x2="1010.92" y2="155.84">
     <stop offset="0" stop-opacity="1" stop-color="#D1D7E0"/>
     <stop offset="1" stop-opacity="1" stop-color="#EBEBFF"/>
    </linearGradient>
    <linearGradient id="id20" gradientUnits="userSpaceOnUse" x1="1006.3" y1="167.57" x2="1010.92" y2="167.57">
     <stop offset="0" stop-opacity="1" stop-color="#D1D7E0"/>
     <stop offset="1" stop-opacity="1" stop-color="#EBEBFF"/>
    </linearGradient>
    <linearGradient id="id21" gradientUnits="userSpaceOnUse" x1="1006.3" y1="179.31" x2="1010.92" y2="179.31">
     <stop offset="0" stop-opacity="1" stop-color="#D1D7E0"/>
     <stop offset="1" stop-opacity="1" stop-color="#EBEBFF"/>
    </linearGradient>
    <linearGradient id="id22" gradientUnits="userSpaceOnUse" x1="941.95" y1="417.21" x2="964.14" y2="417.21">
     <stop offset="0" stop-opacity="1" stop-color="#D1D7E0"/>
     <stop offset="1" stop-opacity="1" stop-color="#EBEBFF"/>
    </linearGradient>
    <linearGradient id="id23" gradientUnits="userSpaceOnUse" x1="934" y1="417.21" x2="943.25" y2="417.21">
     <stop offset="0" stop-opacity="1" stop-color="#D1D7E0"/>
     <stop offset="1" stop-opacity="1" stop-color="#EBEBFF"/>
    </linearGradient>
 </defs>
 <g id="Layer_x0020_1">
  <metadata id="CorelCorpID_0Corel-Layer"/>
  <polygon fill="#FAFAFA" fill-rule="nonzero" points="0,768 1366,768 1366,0 0,0 "/>
  <g clip-path="url(#id0)">
   <g id="_1405299348784">
    <g>
     <path id="1" fill="#C5D9C5" fill-rule="nonzero" d="M-40 257.68l83.55 -4.93 -83.55 -50.66 0 -1.54 86.05 52.17c0.25,0.15 0.36,0.45 0.3,0.73 -0.07,0.28 -0.32,0.48 -0.6,0.5l-85.75 5.05 0 -1.32z"/>
     <path fill="#C5D9C5" fill-rule="nonzero" d="M-40 610.32l11.26 6.46 60.19 -16.08 -71.45 -27.36 0 -1.41 73.83 28.27c0.26,0.1 0.43,0.36 0.42,0.65 -0.02,0.28 -0.22,0.53 -0.49,0.6l-62.42 16.68 -0.17 0.02 -0.33 -0.09 -10.84 -6.22 0 -1.52z"/>
     <path fill="#C5D9C5" fill-rule="nonzero" d="M565.91 442.27l-6.48 31.33 -153.87 -49.91 160.35 18.58zm-5.98 32.84l0.33 -0.09 0.31 -0.43 6.78 -32.76 -0.11 -0.52 -0.46 -0.26 -167.66 -19.43c-0.35,-0.06 -0.65,0.18 -0.72,0.51 -0.07,0.33 0.12,0.67 0.45,0.77l160.87 52.18 0.21 0.03z"/>
     <path fill="#C5D9C5" fill-rule="nonzero" d="M967.39 778l-18.43 -47.88 68.15 47.88 2.3 0 -71.47 -50.21 -0.78 0.02c-0.23,0.18 -0.32,0.49 -0.22,0.76l19.03 49.43 1.42 0z"/>
     <polygon fill="#C5D9C5" fill-rule="nonzero" points="887.4,778 947.27,729.41 965.97,778 967.39,778 948.18,728.09 947.73,727.69 947.15,727.82 885.3,778 "/>
     <path fill="#C5D9C5" fill-rule="nonzero" d="M397.77 422.07l-276.12 110.86 136.33 -226.07 139.79 115.21zm-277.7 112.87l0.24 -0.05 278.98 -112 0.41 -0.52 -0.23 -0.61 -141.24 -116.41 -0.53 -0.14 -0.45 0.31 -137.75 228.42 0.06 0.77 0.51 0.23z"/>
     <path fill="#C5D9C5" fill-rule="nonzero" d="M256.86 306.16l-135.92 225.39 21.72 -276.46 114.2 51.07zm-136.79 228.78l0.56 -0.32 137.74 -228.42 0.07 -0.54 -0.36 -0.4 -115.73 -51.76 -0.61 0.04 -0.32 0.51 -22.01 280.18c-0.03,0.31 0.16,0.59 0.46,0.68l0.2 0.03z"/>
     <path fill="#C5D9C5" fill-rule="nonzero" d="M141.36 254.76l-21.65 275.6 -73.15 -276.4 94.8 0.8zm-21.29 280.18l0.06 0c0.32,-0.03 0.57,-0.29 0.59,-0.61l22.02 -280.17 -0.18 -0.5 -0.48 -0.22 -96.37 -0.81 -0.53 0.25 -0.11 0.58 74.36 280.99c0.08,0.29 0.34,0.49 0.64,0.49z"/>
     <path fill="#C5D9C5" fill-rule="nonzero" d="M-40 571.93l73.48 28.13 84.88 -65.3 -158.36 -16.97 0 -1.33 160.14 17.16c0.27,0.04 0.49,0.22 0.56,0.48 0.07,0.26 -0.01,0.54 -0.23,0.7l-86.48 66.54 -0.4 0.13 -0.24 -0.04 -73.35 -28.09 0 -1.41z"/>
     <path fill="#C5D9C5" fill-rule="nonzero" d="M46.76 163.87l93.66 89.56 -94.05 -0.8 0.39 -88.76zm95.32 90.89c0.27,0 0.51,-0.16 0.61,-0.41l-0.16 -0.72 -95.97 -91.78 -0.71 -0.13c-0.24,0.11 -0.4,0.34 -0.4,0.61l-0.4 90.95c-0.01,0.37 0.29,0.66 0.65,0.67l96.37 0.81 0.01 0z"/>
     <polygon fill="#C5D9C5" fill-rule="nonzero" points="-40,119.92 45.45,161.28 45.66,-32.2 46.98,-32.2 46.77,162.33 46.46,162.89 46.11,162.99 45.82,162.92 -40,121.38 "/>
     <polygon fill="#C5D9C5" fill-rule="nonzero" points="45.45,163.07 45.05,252.12 -40,200.55 -40,202.09 45.36,253.85 45.71,253.95 46.03,253.86 46.37,253.29 46.77,162.33 46.55,161.84 46.04,161.67 -40,171.45 -40,172.77 "/>
     <path fill="#C5D9C5" fill-rule="nonzero" d="M-40 171.44l83.77 -9.51 -83.77 -40.55 0 -1.46 86.4 41.82c0.26,0.12 0.41,0.41 0.36,0.7 -0.05,0.29 -0.28,0.51 -0.58,0.55l-86.18 9.78 0 -1.33z"/>
     <path fill="#C5D9C5" fill-rule="nonzero" d="M565.92 778l-70.31 -36.19 12.86 36.19 -1.4 0 -13.26 -37.32c-0.09,-0.26 -0.01,-0.54 0.19,-0.72l0.74 -0.09 74.07 38.13 -2.89 0z"/>
     <polygon fill="#C5D9C5" fill-rule="nonzero" points="507.07,778 494.06,741.37 418.58,778 415.56,778 494.15,739.86 494.69,739.85 495.06,740.24 508.47,778 "/>
     <path fill="#C5D9C5" fill-rule="nonzero" d="M556 476.58l-73.17 55.12 -42.99 -12.84 116.16 -42.28zm-73.04 56.51l0.39 -0.13 76.97 -57.98c0.26,-0.2 0.34,-0.55 0.19,-0.84 -0.16,-0.29 -0.5,-0.42 -0.81,-0.31l-122.18 44.47c-0.27,0.09 -0.45,0.36 -0.44,0.64 0.01,0.28 0.2,0.53 0.47,0.61l45.22 13.51 0.19 0.03z"/>
     <path fill="#C5D9C5" fill-rule="nonzero" d="M557.9 474.49l-119.78 43.59 -37.94 -94.74 157.72 51.15zm-120.16 45.09l0.23 -0.04 122.18 -44.47c0.27,-0.09 0.44,-0.35 0.44,-0.63 -0.01,-0.28 -0.19,-0.53 -0.46,-0.62l-160.88 -52.17 -0.68 0.17 -0.13 0.7 38.69 96.64c0.1,0.26 0.35,0.42 0.61,0.42z"/>
     <path fill="#C5D9C5" fill-rule="nonzero" d="M482.32 532.93l11.08 200.84 -54.73 -213.89 43.65 13.05zm12.12 208.19l0.09 -0.01c0.34,-0.05 0.58,-0.35 0.56,-0.69l-11.48 -208.03c-0.01,-0.27 -0.2,-0.51 -0.47,-0.59l-45.21 -13.51 -0.65 0.15 -0.18 0.64 56.7 221.54c0.07,0.3 0.34,0.5 0.64,0.5z"/>
     <path fill="#C5D9C5" fill-rule="nonzero" d="M436.78 518.3l-312.83 15.13 274.73 -110.3 38.1 95.17zm-316.71 16.64l0.03 0 317.67 -15.36 0.53 -0.31 0.05 -0.6 -38.69 -96.65 -0.35 -0.36 -0.51 0 -278.98 112.01c-0.3,0.12 -0.47,0.44 -0.4,0.75 0.07,0.31 0.34,0.52 0.65,0.52z"/>
     <path fill="#C5D9C5" fill-rule="nonzero" d="M430.76 171.69l-32.21 249.31 -139.69 -115.12 171.9 -134.19zm-31.71 251.24l0.24 -0.04 0.41 -0.53 32.57 -252.1c0.04,-0.27 -0.09,-0.52 -0.32,-0.66l-0.74 0.05 -173.81 135.69 -0.25 0.51 0.24 0.52 141.24 116.41 0.42 0.15z"/>
     <path fill="#C5D9C5" fill-rule="nonzero" d="M430.35 170.33l-171.71 134.05 22.13 -201.16 149.58 67.11zm-172.54 136.19l0.4 -0.14 173.82 -135.68 0.24 -0.6 -0.38 -0.53 -151.41 -67.93 -0.6 0.03 -0.33 0.5 -22.4 203.62c-0.03,0.26 0.11,0.52 0.34,0.65l0.32 0.08z"/>
     <path fill="#C5D9C5" fill-rule="nonzero" d="M311.91 -32.2l-31.98 132.79 -86.03 -132.79 -1.57 0 87.33 134.8 0.56 0.3 0.1 0c0.26,-0.05 0.47,-0.25 0.53,-0.5l32.42 -134.6 -1.36 0z"/>
     <path fill="#C5D9C5" fill-rule="nonzero" d="M279.33 104.19l-22.08 200.7 -114.07 -51.02 136.15 -149.68zm-21.52 202.33l0.33 -0.08 0.32 -0.5 22.41 -203.62c0.03,-0.29 -0.13,-0.56 -0.39,-0.68 -0.26,-0.11 -0.57,-0.05 -0.76,0.16l-138.13 151.86 -0.16 0.58 0.38 0.47 115.73 51.75 0.27 0.06z"/>
     <path fill="#C5D9C5" fill-rule="nonzero" d="M278.24 103.43l-136.2 149.73 -94.61 -90.48 230.81 -59.25zm-136.16 151.33l0.02 0 0.47 -0.21 138.13 -151.86 0.08 -0.79c-0.16,-0.25 -0.45,-0.37 -0.73,-0.3l-234.11 60.09 -0.47 0.47 0.18 0.64 95.97 91.78 0.46 0.18z"/>
     <polygon fill="#C5D9C5" fill-rule="nonzero" points="279.16,101.83 46.77,161.48 46.98,-32.2 45.66,-32.2 45.45,162.33 45.7,162.85 46.11,162.99 46.27,162.97 280.37,102.88 280.82,102.48 280.76,101.88 193.9,-32.2 192.33,-32.2 "/>
     <path fill="#C5D9C5" fill-rule="nonzero" d="M437.34 520l56.2 219.62 -294.63 -54.93 238.43 -164.69zm57.1 221.12l0.48 -0.21 0.16 -0.62 -56.7 -221.53 -0.41 -0.46 -0.6 0.07 -240.51 166.13c-0.22,0.15 -0.32,0.42 -0.27,0.68 0.06,0.26 0.26,0.46 0.53,0.51l297.19 55.42 0.13 0.01z"/>
     <path fill="#C5D9C5" fill-rule="nonzero" d="M492.34 740.74l-76.78 37.26 3.02 0 76.14 -36.95c0.26,-0.12 0.41,-0.4 0.37,-0.68 -0.04,-0.28 -0.25,-0.51 -0.54,-0.56l-297.19 -55.41c-0.28,-0.05 -0.56,0.07 -0.7,0.32l0.08 0.76 79.81 92.52 1.75 0 -79.33 -91.96 293.37 54.7z"/>
     <path fill="#C5D9C5" fill-rule="nonzero" d="M435.46 519.69l-237.98 164.38 -76.36 -149.18 314.34 -15.2zm-238.22 166.01l0.37 -0.11 240.51 -166.13c0.24,-0.17 0.34,-0.48 0.25,-0.75 -0.1,-0.28 -0.38,-0.45 -0.66,-0.45l-317.68 15.36 -0.54 0.33 -0.01 0.63 77.17 150.77 0.42 0.34 0.17 0.01z"/>
     <path fill="#C5D9C5" fill-rule="nonzero" d="M219.28 778l-20.81 -90.51 78.08 90.51 1.74 0 -80.56 -93.38c-0.19,-0.24 -0.52,-0.3 -0.79,-0.16 -0.28,0.13 -0.41,0.44 -0.35,0.73l21.34 92.81 1.35 0z"/>
     <polygon fill="#C5D9C5" fill-rule="nonzero" points="196.85,686.33 217.93,778 219.28,778 197.88,684.9 197.42,684.41 196.78,684.57 99.99,778 101.89,778 "/>
     <path fill="#C5D9C5" fill-rule="nonzero" d="M119.84 535.29l75.87 148.23 -160.9 -82.82 85.03 -65.41zm77.4 150.41l0.46 -0.19c0.2,-0.2 0.25,-0.51 0.13,-0.76l-77.18 -150.77 -0.44 -0.34 -0.55 0.12 -86.47 66.53 -0.26 0.58 0.35 0.53 163.65 84.23 0.31 0.07z"/>
     <polygon fill="#C5D9C5" fill-rule="nonzero" points="195.96,685.36 99.99,778 101.89,778 197.7,685.52 197.88,684.89 197.42,684.41 -28.65,616.86 -29.3,617.02 -29.46,617.69 20.03,778 21.41,778 -27.84,618.48 "/>
     <path fill="#C5D9C5" fill-rule="nonzero" d="M33.51 601.52l157.09 80.86 -217.01 -64.85 59.92 -16.01zm163.73 84.18c0.26,0 0.5,-0.15 0.61,-0.41 0.12,-0.32 -0.01,-0.67 -0.31,-0.83l-163.65 -84.24 -0.47 -0.04 -62.42 16.67c-0.29,0.08 -0.49,0.34 -0.5,0.63 0,0.3 0.19,0.56 0.48,0.64l226.07 67.56 0.19 0.02z"/>
     <path fill="#C5D9C5" fill-rule="nonzero" d="M986.52 660.33l183.43 107.42 -221.36 -39.91 37.93 -67.51zm186.98 109.38c0.27,0 0.52,-0.16 0.61,-0.43 0.12,-0.3 0,-0.63 -0.28,-0.8l-187.22 -109.63 -0.5 -0.06 -0.41 0.31 -38.71 68.91 -0.03 0.6 0.49 0.37 225.93 40.72 0.12 0.01z"/>
     <path fill="#C5D9C5" fill-rule="nonzero" d="M985.26 659.9l-37.81 67.27 -75.05 -89.7 112.86 22.43zm-37.7 69.09l0.06 0 0.52 -0.34 38.71 -68.9 0.03 -0.6 -0.47 -0.37 -115.59 -22.97c-0.27,-0.05 -0.55,0.07 -0.69,0.31l0.06 0.76 76.87 91.87 0.5 0.24z"/>
     <path fill="#C5D9C5" fill-rule="nonzero" d="M620.5 264.75l0.16 -0.02c0.35,-0.09 0.56,-0.45 0.47,-0.8l-36.31 -139.85c-0.09,-0.35 -0.44,-0.57 -0.8,-0.47 -0.35,0.09 -0.57,0.45 -0.47,0.8l36.31 139.85c0.07,0.3 0.34,0.49 0.64,0.49z"/>
     <path fill="#C5D9C5" fill-rule="nonzero" d="M583.72 125.08l35.77 137.78 -186.08 -92.53 150.31 -45.25zm36.78 139.67l0.41 -0.14 0.22 -0.68 -36.31 -139.85 -0.31 -0.41 -0.51 -0.05 -152.57 45.92c-0.26,0.08 -0.45,0.31 -0.47,0.58 -0.02,0.27 0.12,0.53 0.37,0.65l188.87 93.92 0.3 0.06z"/>
     <path fill="#C5D9C5" fill-rule="nonzero" d="M619.3 265.76l-53.07 175.22 -165.4 -19.17 218.47 -156.05zm-52.59 176.6c0.28,0 0.54,-0.19 0.63,-0.47l53.79 -177.6c0.08,-0.27 -0.02,-0.57 -0.25,-0.73l-0.77 0 -221.44 158.18c-0.23,0.15 -0.33,0.43 -0.26,0.7 0.07,0.26 0.29,0.45 0.56,0.49l167.66 19.43 0.08 0z"/>
     <path fill="#C5D9C5" fill-rule="nonzero" d="M619.22 264.2l-219.32 156.65 32.25 -249.67 187.07 93.02zm-220.17 158.73l0.38 -0.12 221.45 -158.18 0.27 -0.59 -0.36 -0.54 -188.87 -93.91 -0.61 0 -0.34 0.5 -32.58 252.1c-0.03,0.26 0.1,0.51 0.32,0.65l0.34 0.09z"/>
     <path fill="#C5D9C5" fill-rule="nonzero" d="M567.09 443.09l109.38 118.07 -115.81 -86.98 6.43 -31.09zm114.85 123.67l0.49 -0.22c0.23,-0.26 0.23,-0.65 -0.01,-0.89l-115.23 -124.4 -0.66 -0.18 -0.47 0.5 -6.78 32.75 0.25 0.66 122.01 91.64 0.4 0.14z"/>
     <path fill="#C5D9C5" fill-rule="nonzero" d="M559.93 475.28l119.44 89.71 -194.8 -32.96 75.36 -56.75zm122.01 91.48c0.26,-0.01 0.5,-0.16 0.61,-0.4 0.12,-0.28 0.03,-0.61 -0.21,-0.79l-122.02 -91.64 -0.79 0 -76.97 57.97c-0.21,0.16 -0.31,0.43 -0.24,0.69 0.06,0.25 0.27,0.45 0.53,0.49l198.98 33.66 0.11 0.02z"/>
     <path fill="#C5D9C5" fill-rule="nonzero" d="M680.51 566.52l-185.49 172.49 -11.36 -205.79 196.85 33.3zm-186.07 174.6l0.44 -0.18 187.51 -174.36 0.18 -0.67 -0.52 -0.47 -198.98 -33.66 -0.55 0.16 -0.22 0.53 11.48 208.02c0.01,0.26 0.17,0.48 0.41,0.58l0.25 0.05z"/>
     <path fill="#C5D9C5" fill-rule="nonzero" d="M-40 432.75l159 100.08 -73.74 -278.64 -85.26 36.02 0 -1.43 85.45 -36.1 0.55 0.01 0.35 0.43 74.35 280.99c0.07,0.26 -0.02,0.54 -0.24,0.7l-0.39 0.13 -0.36 -0.1 -159.71 -100.53 0 -1.56z"/>
     <path fill="#C5D9C5" fill-rule="nonzero" d="M-40 516.46l157.3 16.86 -157.3 -99.01 0 -1.56 160.42 100.97c0.26,0.17 0.37,0.49 0.27,0.78 -0.09,0.26 -0.34,0.44 -0.62,0.44l-0.07 0 -160 -17.15 0 -1.33z"/>
     <path fill="#C5D9C5" fill-rule="nonzero" d="M-40 288.78l81.91 -34.61 -81.91 4.83 0 -1.32 85.67 -5.05c0.36,-0.03 0.61,0.19 0.68,0.51 0.07,0.31 -0.09,0.63 -0.39,0.76l-85.96 36.31 0 -1.43z"/>
     <path fill="#C5D9C5" fill-rule="nonzero" d="M870.38 637.11l74.98 89.62 -223.17 -90.14 148.19 0.52zm77.18 91.88l0.54 -0.28 -0.03 -0.81 -76.87 -91.87 -0.5 -0.23 -151.94 -0.54 -0.01 0c-0.31,0.01 -0.58,0.23 -0.64,0.54 -0.06,0.31 0.11,0.62 0.4,0.74l228.81 92.4 0.24 0.05z"/>
     <polygon fill="#C5D9C5" fill-rule="nonzero" points="946.28,728.52 885.3,778 887.4,778 947.98,728.84 948.21,728.23 947.81,727.72 719,635.31 718.34,635.41 718.11,636.04 743.73,778 745.08,778 719.62,636.98 "/>
     <path fill="#C5D9C5" fill-rule="nonzero" d="M683.33 567.32l183.67 68.46 -147.84 -0.51 -35.83 -67.95zm187.37 69.8c0.31,-0.01 0.59,-0.23 0.64,-0.55 0.06,-0.31 -0.11,-0.62 -0.42,-0.73l-188.75 -70.36c-0.26,-0.1 -0.55,-0.03 -0.73,0.18l-0.08 0.74 36.82 69.83 0.58 0.35 151.93 0.54 0.01 0z"/>
     <polygon fill="#C5D9C5" fill-rule="nonzero" points="718.26,636.88 743.73,778 745.07,778 719.41,635.81 719.06,635.34 718.48,635.32 494.16,739.86 493.77,740.44 494.13,741.04 565.92,778 568.81,778 495.93,740.49 "/>
     <path fill="#C5D9C5" fill-rule="nonzero" d="M717.85 635.62l-219.9 102.47 183.81 -170.92 36.09 68.45zm-223.41 105.5l0.27 -0.06 224.33 -104.54 0.35 -0.39 -0.05 -0.52 -36.82 -69.82 -0.47 -0.35 -0.56 0.17 -187.5 174.36c-0.24,0.22 -0.29,0.59 -0.1,0.86l0.55 0.29z"/>
     <path fill="#C5D9C5" fill-rule="nonzero" d="M-40 620.94l9.61 -3.58 -9.61 -5.52 0 -1.52 11.49 6.6c0.23,0.12 0.35,0.37 0.33,0.63 -0.02,0.25 -0.19,0.47 -0.43,0.56l-11.39 4.24 0 -1.41z"/>
     <path fill="#C5D9C5" fill-rule="nonzero" d="M584.19 124.91l0.54 -0.29c0.21,-0.31 0.12,-0.72 -0.18,-0.92l-152.45 -101.96c-0.3,-0.2 -0.71,-0.12 -0.91,0.18 -0.21,0.31 -0.13,0.72 0.18,0.92l152.45 101.96 0.37 0.11z"/>
     <path fill="#C5D9C5" fill-rule="nonzero" d="M582.65 124.02l-150.37 45.27 0.11 -145.76 150.26 100.49zm-151.03 46.82l0.19 -0.03 152.57 -45.93c0.24,-0.08 0.42,-0.28 0.46,-0.53l-0.29 -0.65 -152.45 -101.96 -0.67 -0.03 -0.36 0.58 -0.11 147.89 0.27 0.52 0.39 0.14z"/>
     <path fill="#C5D9C5" fill-rule="nonzero" d="M431.07 23.39l-0.11 145.77 -149.24 -66.97 149.35 -78.8zm0.55 147.45l0.36 -0.11 0.3 -0.55 0.11 -147.89 -0.31 -0.56 -0.65 -0.02 -151.53 79.95 -0.35 0.6 0.39 0.58 151.41 67.94 0.27 0.06z"/>
     <path fill="#C5D9C5" fill-rule="nonzero" d="M430.92 21.98l-149.73 79 32.08 -133.18 -1.36 0 -32.34 134.29 0.23 0.68 0.42 0.13 0.3 -0.08 151.52 -79.94c0.29,-0.16 0.43,-0.5 0.32,-0.81l-19.55 -54.27 -1.4 0 19.51 54.18z"/>
     <polygon fill="#C5D9C5" fill-rule="nonzero" points="20.03,778 -29.09,618.9 -40,632.93 -40,630.78 -29.36,617.08 -28.72,616.84 -28.2,617.3 21.41,778 "/>
     <path fill="#C5D9C5" fill-rule="nonzero" d="M-40 630.78l9.22 -11.86 -9.22 3.44 0 -1.41 10.94 -4.08c0.27,-0.1 0.58,-0.01 0.76,0.23l-0.01 0.79 -11.69 15.04 0 -2.15z"/>
     <path fill="#C5D9C5" fill-rule="nonzero" d="M257.76 297.12c4.83,-0.03 8.77,3.87 8.79,8.7 0.03,4.83 -3.87,8.76 -8.7,8.79 -4.82,0.02 -8.76,-3.88 -8.79,-8.7 -0.02,-4.83 3.87,-8.77 8.7,-8.79z"/>
     <path fill="#FEFEFE" fill-rule="nonzero" d="M257.75 294.48c6.28,-0.04 11.41,5.04 11.45,11.32 0.02,6.28 -5.05,11.42 -11.33,11.45 -6.28,0.03 -11.41,-5.05 -11.45,-11.33 -0.03,-6.28 5.05,-11.41 11.33,-11.44zm0.01 2.64c-4.83,0.02 -8.72,3.96 -8.7,8.79 0.03,4.82 3.97,8.72 8.79,8.7 4.83,-0.03 8.73,-3.96 8.7,-8.79 -0.02,-4.83 -3.96,-8.73 -8.79,-8.7z"/>
     <path fill="#C5D9C5" fill-rule="nonzero" d="M138.33 254.12c-0.01,-2.07 1.66,-3.75 3.73,-3.76 2.07,-0.01 3.75,1.66 3.76,3.72 0.01,2.07 -1.66,3.76 -3.72,3.77 -2.07,0.01 -3.76,-1.66 -3.77,-3.73z"/>
     <path fill="#FEFEFE" fill-rule="nonzero" d="M142.04 247.72c3.52,-0.02 6.41,2.83 6.42,6.35 0.02,3.52 -2.83,6.4 -6.35,6.42 -3.52,0.02 -6.4,-2.83 -6.42,-6.35 -0.01,-3.52 2.83,-6.4 6.35,-6.42zm0.02 2.64c-2.07,0.01 -3.74,1.69 -3.73,3.76 0.01,2.07 1.7,3.74 3.77,3.73 2.06,-0.01 3.73,-1.7 3.72,-3.77 -0.01,-2.06 -1.69,-3.73 -3.76,-3.72z"/>
     <path fill="#C5D9C5" fill-rule="nonzero" d="M46.15 170.95c-4.76,0.02 -8.63,-3.82 -8.66,-8.58 -0.02,-4.76 3.82,-8.63 8.57,-8.66 4.77,-0.02 8.64,3.82 8.67,8.57 0.02,4.76 -3.82,8.64 -8.58,8.67z"/>
     <path fill="#FEFEFE" fill-rule="nonzero" d="M46.05 151.07c6.21,-0.03 11.28,5 11.32,11.2 0.03,6.21 -5,11.28 -11.21,11.32 -6.2,0.03 -11.27,-4.99 -11.31,-11.2 -0.03,-6.21 4.99,-11.29 11.2,-11.32zm0.01 2.64c-4.75,0.03 -8.59,3.9 -8.57,8.66 0.03,4.76 3.9,8.6 8.66,8.58 4.76,-0.03 8.6,-3.91 8.58,-8.67 -0.03,-4.75 -3.9,-8.59 -8.67,-8.57z"/>
     <path fill="#C5D9C5" fill-rule="nonzero" d="M437.7 511.13c4.3,-0.02 7.81,3.45 7.83,7.75 0.02,4.3 -3.45,7.8 -7.75,7.82 -4.3,0.03 -7.8,-3.44 -7.83,-7.74 -0.02,-4.3 3.45,-7.8 7.75,-7.83z"/>
     <path fill="#FEFEFE" fill-rule="nonzero" d="M437.69 508.49c5.74,-0.03 10.45,4.63 10.48,10.38 0.03,5.74 -4.63,10.44 -10.38,10.47 -5.75,0.03 -10.45,-4.62 -10.47,-10.37 -0.04,-5.75 4.62,-10.45 10.37,-10.48zm0.01 2.64c-4.3,0.03 -7.77,3.53 -7.75,7.83 0.03,4.3 3.53,7.77 7.83,7.74 4.3,-0.02 7.77,-3.52 7.75,-7.82 -0.02,-4.3 -3.53,-7.77 -7.83,-7.75z"/>
     <path fill="#C5D9C5" fill-rule="nonzero" d="M197.21 680.19c2.68,-0.01 4.87,2.15 4.88,4.83 0.01,2.68 -2.15,4.86 -4.83,4.88 -2.68,0.01 -4.86,-2.15 -4.88,-4.83 -0.01,-2.68 2.15,-4.87 4.83,-4.88z"/>
     <path fill="#FEFEFE" fill-rule="nonzero" d="M197.2 677.55c4.13,-0.02 7.51,3.32 7.53,7.46 0.02,4.13 -3.32,7.51 -7.46,7.53 -4.13,0.02 -7.51,-3.33 -7.53,-7.46 -0.02,-4.13 3.33,-7.51 7.46,-7.53zm0.01 2.64c-2.68,0.01 -4.84,2.2 -4.83,4.88 0.02,2.68 2.2,4.84 4.88,4.83 2.68,-0.02 4.84,-2.2 4.83,-4.88 -0.01,-2.68 -2.2,-4.84 -4.88,-4.83z"/>
     <path fill="#C5D9C5" fill-rule="nonzero" d="M33.54 591.42c5.19,-0.03 9.42,4.15 9.45,9.34 0.02,5.2 -4.16,9.42 -9.35,9.45 -5.19,0.03 -9.42,-4.16 -9.45,-9.35 -0.02,-5.19 4.16,-9.42 9.35,-9.44z"/>
     <path fill="#FEFEFE" fill-rule="nonzero" d="M33.53 588.78c6.63,-0.04 12.06,5.33 12.09,11.97 0.04,6.64 -5.33,12.07 -11.97,12.1 -6.64,0.03 -12.07,-5.34 -12.1,-11.98 -0.03,-6.63 5.34,-12.06 11.98,-12.09zm0.01 2.64c-5.19,0.02 -9.37,4.25 -9.35,9.44 0.03,5.19 4.26,9.38 9.45,9.35 5.19,-0.03 9.37,-4.25 9.35,-9.45 -0.03,-5.19 -4.26,-9.37 -9.45,-9.34z"/>
     <path fill="#C5D9C5" fill-rule="nonzero" d="M1173.48 765.19c2.13,-0.01 3.87,1.71 3.88,3.84 0.01,2.14 -1.71,3.88 -3.85,3.89 -2.13,0.01 -3.87,-1.71 -3.88,-3.84 -0.01,-2.14 1.71,-3.88 3.85,-3.89z"/>
     <path fill="#FEFEFE" fill-rule="nonzero" d="M1173.46 762.55c3.59,-0.02 6.52,2.89 6.54,6.47 0.02,3.59 -2.88,6.52 -6.47,6.54 -3.59,0.02 -6.52,-2.89 -6.54,-6.47 -0.02,-3.59 2.88,-6.52 6.47,-6.54zm0.02 2.64c-2.14,0.01 -3.86,1.75 -3.85,3.89 0.01,2.13 1.75,3.85 3.88,3.84 2.14,-0.01 3.86,-1.75 3.85,-3.89 -0.01,-2.13 -1.75,-3.85 -3.88,-3.84z"/>
     <path fill="#C5D9C5" fill-rule="nonzero" d="M986.25 653.17c3.45,-0.02 6.26,2.77 6.28,6.22 0.02,3.45 -2.77,6.27 -6.22,6.28 -3.45,0.02 -6.26,-2.76 -6.28,-6.21 -0.02,-3.45 2.76,-6.27 6.22,-6.29z"/>
     <path fill="#FEFEFE" fill-rule="nonzero" d="M986.23 650.53c4.91,-0.02 8.91,3.94 8.94,8.85 0.02,4.9 -3.95,8.91 -8.85,8.93 -4.9,0.03 -8.91,-3.94 -8.93,-8.84 -0.03,-4.9 3.94,-8.91 8.84,-8.94zm0.02 2.64c-3.46,0.02 -6.24,2.84 -6.22,6.29 0.02,3.45 2.83,6.23 6.28,6.21 3.45,-0.01 6.24,-2.83 6.22,-6.28 -0.02,-3.45 -2.83,-6.24 -6.28,-6.22z"/>
     <path fill="#C5D9C5" fill-rule="nonzero" d="M620.48 260.32c2.08,-0.01 3.78,1.67 3.79,3.75 0.01,2.09 -1.67,3.79 -3.76,3.8 -2.08,0.01 -3.78,-1.67 -3.79,-3.76 -0.01,-2.08 1.67,-3.78 3.76,-3.79z"/>
     <path fill="#FEFEFE" fill-rule="nonzero" d="M620.46 257.68c3.54,-0.02 6.43,2.85 6.45,6.38 0.02,3.54 -2.85,6.43 -6.38,6.45 -3.54,0.01 -6.43,-2.85 -6.45,-6.38 -0.02,-3.54 2.85,-6.43 6.38,-6.45zm0.02 2.64c-2.09,0.01 -3.77,1.71 -3.76,3.79 0.01,2.09 1.71,3.77 3.79,3.76 2.09,-0.01 3.77,-1.71 3.76,-3.8 -0.01,-2.08 -1.71,-3.76 -3.79,-3.75z"/>
     <path fill="#C5D9C5" fill-rule="nonzero" d="M399 413.67c4.76,-0.03 8.63,3.81 8.65,8.56 0.02,4.75 -3.81,8.62 -8.56,8.64 -4.75,0.03 -8.62,-3.8 -8.64,-8.56 -0.03,-4.75 3.8,-8.62 8.55,-8.64z"/>
     <path fill="#FEFEFE" fill-rule="nonzero" d="M398.99 411.03c6.2,-0.03 11.27,4.99 11.3,11.18 0.03,6.2 -4.99,11.27 -11.19,11.3 -6.19,0.04 -11.26,-4.98 -11.29,-11.18 -0.04,-6.2 4.98,-11.27 11.18,-11.3zm0.01 2.64c-4.75,0.02 -8.58,3.89 -8.55,8.64 0.02,4.76 3.89,8.59 8.64,8.56 4.75,-0.02 8.58,-3.89 8.56,-8.64 -0.02,-4.75 -3.89,-8.59 -8.65,-8.56z"/>
     <path fill="#C5D9C5" fill-rule="nonzero" d="M566.73 445.99c-2.37,0.01 -4.31,-1.9 -4.32,-4.27 -0.01,-2.37 1.9,-4.3 4.27,-4.31 2.38,-0.01 4.31,1.9 4.32,4.27 0.01,2.37 -1.9,4.3 -4.27,4.31z"/>
     <path fill="#FEFEFE" fill-rule="nonzero" d="M566.67 434.77c3.82,-0.02 6.95,3.07 6.97,6.89 0.01,3.83 -3.08,6.95 -6.9,6.97 -3.82,0.02 -6.95,-3.07 -6.97,-6.89 -0.01,-3.83 3.08,-6.95 6.9,-6.97zm0.01 2.64c-2.37,0.01 -4.28,1.94 -4.27,4.31 0.01,2.37 1.95,4.28 4.32,4.27 2.37,-0.01 4.28,-1.94 4.27,-4.31 -0.01,-2.37 -1.94,-4.28 -4.32,-4.27z"/>
     <path fill="#C5D9C5" fill-rule="nonzero" d="M559.9 469.6c2.68,-0.01 4.86,2.15 4.88,4.83 0.01,2.68 -2.15,4.86 -4.83,4.87 -2.68,0.02 -4.86,-2.14 -4.87,-4.82 -0.02,-2.68 2.14,-4.86 4.82,-4.88z"/>
     <path fill="#FEFEFE" fill-rule="nonzero" d="M559.89 466.96c4.13,-0.02 7.51,3.33 7.53,7.45 0.02,4.13 -3.32,7.51 -7.45,7.53 -4.14,0.03 -7.51,-3.32 -7.54,-7.45 -0.02,-4.13 3.33,-7.51 7.46,-7.53zm0.01 2.64c-2.68,0.02 -4.84,2.2 -4.82,4.88 0.01,2.68 2.19,4.84 4.87,4.82 2.68,-0.01 4.84,-2.19 4.83,-4.87 -0.02,-2.68 -2.2,-4.84 -4.88,-4.83z"/>
     <path fill="#C5D9C5" fill-rule="nonzero" d="M482.94 528.63c2.09,-0.01 3.8,1.68 3.81,3.78 0.01,2.1 -1.68,3.81 -3.78,3.82 -2.09,0.01 -3.8,-1.69 -3.81,-3.78 -0.01,-2.1 1.68,-3.81 3.78,-3.82z"/>
     <path fill="#FEFEFE" fill-rule="nonzero" d="M482.92 525.99c3.55,-0.01 6.45,2.86 6.47,6.41 0.02,3.55 -2.85,6.45 -6.4,6.47 -3.55,0.02 -6.45,-2.86 -6.47,-6.41 -0.02,-3.55 2.85,-6.45 6.4,-6.47zm0.02 2.64c-2.1,0.01 -3.79,1.72 -3.78,3.82 0.01,2.09 1.72,3.79 3.81,3.78 2.1,-0.01 3.79,-1.73 3.78,-3.82 -0.01,-2.1 -1.72,-3.79 -3.81,-3.78z"/>
     <path fill="#C5D9C5" fill-rule="nonzero" d="M120.03 527.68c3.65,-0.02 6.62,2.92 6.64,6.57 0.02,3.64 -2.92,6.61 -6.57,6.63 -3.64,0.02 -6.62,-2.92 -6.63,-6.57 -0.02,-3.64 2.92,-6.61 6.56,-6.63z"/>
     <path fill="#FEFEFE" fill-rule="nonzero" d="M120.02 525.04c5.1,-0.03 9.26,4.1 9.29,9.2 0.03,5.09 -4.1,9.26 -9.19,9.28 -5.1,0.03 -9.27,-4.1 -9.29,-9.19 -0.03,-5.1 4.09,-9.27 9.19,-9.29zm0.01 2.64c-3.64,0.02 -6.58,2.99 -6.56,6.63 0.01,3.65 2.99,6.59 6.63,6.57 3.65,-0.02 6.59,-2.99 6.57,-6.63 -0.02,-3.65 -2.99,-6.59 -6.64,-6.57z"/>
     <path fill="#C5D9C5" fill-rule="nonzero" d="M45.67 245.7c4.19,-0.02 7.6,3.36 7.62,7.55 0.02,4.19 -3.35,7.6 -7.55,7.63 -4.19,0.02 -7.6,-3.36 -7.62,-7.55 -0.03,-4.2 3.36,-7.61 7.55,-7.63z"/>
     <path fill="#FEFEFE" fill-rule="nonzero" d="M45.65 243.06c5.64,-0.03 10.26,4.53 10.29,10.18 0.02,5.64 -4.54,10.25 -10.18,10.27 -5.64,0.03 -10.25,-4.53 -10.28,-10.17 -0.03,-5.64 4.53,-10.25 10.17,-10.28zm0.02 2.64c-4.19,0.02 -7.58,3.43 -7.55,7.63 0.02,4.19 3.43,7.57 7.62,7.55 4.2,-0.03 7.57,-3.44 7.55,-7.63 -0.02,-4.19 -3.43,-7.57 -7.62,-7.55z"/>
     <path fill="#C5D9C5" fill-rule="nonzero" d="M947.52 720.1c4.55,-0.02 8.25,3.64 8.27,8.19 0.02,4.54 -3.64,8.24 -8.19,8.27 -4.54,0.02 -8.25,-3.65 -8.27,-8.19 -0.02,-4.54 3.65,-8.25 8.19,-8.27z"/>
     <path fill="#FEFEFE" fill-rule="nonzero" d="M947.5 717.46c6,-0.03 10.9,4.82 10.93,10.81 0.03,6 -4.82,10.9 -10.81,10.93 -6,0.03 -10.9,-4.82 -10.93,-10.82 -0.03,-5.99 4.82,-10.89 10.81,-10.92zm0.02 2.64c-4.54,0.02 -8.21,3.73 -8.19,8.27 0.02,4.54 3.73,8.21 8.27,8.19 4.55,-0.03 8.21,-3.73 8.19,-8.27 -0.02,-4.55 -3.72,-8.21 -8.27,-8.19z"/>
     <path fill="#C5D9C5" fill-rule="nonzero" d="M865.96 636.48c-0.02,-2.62 2.09,-4.75 4.71,-4.76 2.62,-0.02 4.75,2.1 4.76,4.71 0.01,2.62 -2.1,4.75 -4.71,4.77 -2.62,0.01 -4.75,-2.1 -4.76,-4.72z"/>
     <path fill="#FEFEFE" fill-rule="nonzero" d="M870.66 629.08c4.06,-0.02 7.39,3.27 7.41,7.34 0.02,4.07 -3.27,7.39 -7.34,7.41 -4.07,0.02 -7.4,-3.27 -7.42,-7.33 -0.02,-4.07 3.28,-7.4 7.35,-7.42zm0.01 2.64c-2.62,0.01 -4.73,2.14 -4.71,4.76 0.01,2.62 2.14,4.73 4.76,4.72 2.61,-0.02 4.72,-2.15 4.71,-4.77 -0.01,-2.61 -2.14,-4.73 -4.76,-4.71z"/>
     <path fill="#C5D9C5" fill-rule="nonzero" d="M718.72 628.14c4.3,-0.02 7.8,3.44 7.82,7.74 0.03,4.3 -3.44,7.81 -7.74,7.83 -4.3,0.02 -7.8,-3.45 -7.83,-7.75 -0.02,-4.3 3.45,-7.8 7.75,-7.82z"/>
     <path fill="#FEFEFE" fill-rule="nonzero" d="M718.71 625.5c5.74,-0.03 10.45,4.62 10.47,10.37 0.03,5.75 -4.62,10.45 -10.37,10.48 -5.75,0.03 -10.45,-4.62 -10.48,-10.37 -0.02,-5.75 4.63,-10.45 10.38,-10.48zm0.01 2.64c-4.3,0.02 -7.77,3.52 -7.75,7.82 0.03,4.3 3.53,7.77 7.83,7.75 4.3,-0.02 7.77,-3.53 7.74,-7.83 -0.02,-4.3 -3.52,-7.76 -7.82,-7.74z"/>
     <path fill="#C5D9C5" fill-rule="nonzero" d="M494.4 733.67c3.75,-0.02 6.8,3 6.82,6.75 0.02,3.75 -3,6.81 -6.75,6.83 -3.75,0.02 -6.81,-3.01 -6.83,-6.76 -0.02,-3.75 3.01,-6.8 6.76,-6.82z"/>
     <path fill="#FEFEFE" fill-rule="nonzero" d="M494.39 731.02c5.2,-0.02 9.45,4.19 9.48,9.39 0.02,5.2 -4.19,9.45 -9.39,9.48 -5.2,0.02 -9.45,-4.18 -9.47,-9.39 -0.03,-5.2 4.18,-9.45 9.38,-9.48zm0.01 2.65c-3.75,0.02 -6.78,3.07 -6.76,6.82 0.02,3.75 3.08,6.78 6.83,6.76 3.75,-0.02 6.77,-3.08 6.75,-6.83 -0.01,-3.75 -3.07,-6.77 -6.82,-6.75z"/>
     <path fill="#C5D9C5" fill-rule="nonzero" d="M681.91 561.11c2.76,-0.01 5,2.21 5.01,4.96 0.02,2.75 -2.2,4.99 -4.96,5.01 -2.75,0.01 -4.99,-2.21 -5,-4.96 -0.02,-2.75 2.2,-5 4.95,-5.01z"/>
     <path fill="#FEFEFE" fill-rule="nonzero" d="M681.9 558.47c4.21,-0.02 7.64,3.38 7.67,7.59 0.02,4.2 -3.39,7.64 -7.59,7.66 -4.21,0.02 -7.64,-3.38 -7.66,-7.59 -0.03,-4.2 3.38,-7.64 7.58,-7.66zm0.01 2.64c-2.75,0.01 -4.97,2.26 -4.95,5.01 0.01,2.75 2.25,4.97 5,4.96 2.76,-0.02 4.98,-2.26 4.96,-5.01 -0.01,-2.75 -2.25,-4.97 -5.01,-4.96z"/>
     <path fill="#C5D9C5" fill-rule="nonzero" d="M584.15 118.29c3.3,-0.02 5.98,2.63 6,5.93 0.01,3.29 -2.64,5.97 -5.93,5.99 -3.3,0.02 -5.98,-2.64 -6,-5.93 -0.02,-3.29 2.64,-5.98 5.93,-5.99z"/>
     <path fill="#FEFEFE" fill-rule="nonzero" d="M584.14 115.64c4.75,-0.02 8.62,3.82 8.65,8.56 0.02,4.75 -3.82,8.62 -8.56,8.65 -4.74,0.03 -8.62,-3.81 -8.65,-8.56 -0.02,-4.74 3.82,-8.62 8.56,-8.65zm0.01 2.65c-3.29,0.01 -5.95,2.7 -5.93,5.99 0.02,3.29 2.7,5.95 6,5.93 3.29,-0.02 5.94,-2.7 5.93,-5.99 -0.02,-3.3 -2.7,-5.95 -6,-5.93z"/>
     <path fill="#C5D9C5" fill-rule="nonzero" d="M431.6 165.75c2.44,-0.01 4.44,1.96 4.45,4.41 0.01,2.44 -1.96,4.43 -4.41,4.45 -2.44,0.01 -4.44,-1.96 -4.45,-4.41 -0.01,-2.45 1.96,-4.44 4.41,-4.45z"/>
     <path fill="#FEFEFE" fill-rule="nonzero" d="M431.58 163.11c3.9,-0.02 7.09,3.13 7.11,7.03 0.02,3.9 -3.14,7.09 -7.03,7.1 -3.9,0.02 -7.09,-3.13 -7.11,-7.03 -0.02,-3.89 3.14,-7.08 7.03,-7.1zm0.02 2.64c-2.45,0.01 -4.42,2 -4.41,4.45 0.01,2.45 2.01,4.42 4.45,4.41 2.45,-0.02 4.42,-2.01 4.41,-4.45 -0.01,-2.45 -2.01,-4.42 -4.45,-4.41z"/>
     <path fill="#C5D9C5" fill-rule="nonzero" d="M431.78 31.82c-5.26,0.03 -9.55,-4.22 -9.58,-9.48 -0.02,-5.26 4.22,-9.55 9.48,-9.58 5.27,-0.03 9.56,4.22 9.59,9.48 0.02,5.27 -4.22,9.56 -9.49,9.58z"/>
     <path fill="#FEFEFE" fill-rule="nonzero" d="M431.67 10.12c6.71,-0.04 12.2,5.4 12.24,12.11 0.03,6.71 -5.4,12.2 -12.11,12.24 -6.72,0.03 -12.2,-5.4 -12.24,-12.12 -0.03,-6.71 5.4,-12.2 12.11,-12.23zm0.01 2.64c-5.26,0.03 -9.5,4.32 -9.48,9.58 0.03,5.26 4.32,9.51 9.58,9.48 5.27,-0.02 9.51,-4.31 9.49,-9.58 -0.03,-5.26 -4.32,-9.51 -9.59,-9.48z"/>
     <path fill="#C5D9C5" fill-rule="nonzero" d="M280.19 97.37c2.68,-0.01 4.87,2.16 4.89,4.85 0.01,2.68 -2.16,4.88 -4.84,4.89 -2.69,0.01 -4.88,-2.16 -4.89,-4.84 -0.02,-2.69 2.15,-4.88 4.84,-4.9z"/>
     <path fill="#FEFEFE" fill-rule="nonzero" d="M280.17 94.74c4.14,-0.03 7.53,3.32 7.55,7.46 0.02,4.14 -3.33,7.53 -7.47,7.55 -4.14,0.02 -7.52,-3.33 -7.55,-7.47 -0.02,-4.14 3.33,-7.52 7.47,-7.54zm0.02 2.63c-2.69,0.02 -4.86,2.21 -4.84,4.9 0.01,2.68 2.2,4.85 4.89,4.84 2.68,-0.01 4.85,-2.21 4.84,-4.89 -0.02,-2.69 -2.21,-4.86 -4.89,-4.85z"/>
     <path fill="#C5D9C5" fill-rule="nonzero" d="M-28.87 611.2c3.48,-0.02 6.31,2.78 6.33,6.26 0.01,3.47 -2.79,6.3 -6.26,6.32 -3.48,0.02 -6.31,-2.78 -6.32,-6.26 -0.02,-3.47 2.78,-6.3 6.25,-6.32z"/>
     <path fill="#FEFEFE" fill-rule="nonzero" d="M-28.88 608.56c4.92,-0.03 8.95,3.96 8.97,8.88 0.03,4.93 -3.95,8.96 -8.88,8.98 -4.92,0.03 -8.95,-3.96 -8.98,-8.88 -0.02,-4.93 3.96,-8.95 8.89,-8.98zm0.01 2.64c-3.47,0.02 -6.27,2.85 -6.25,6.32 0.01,3.48 2.84,6.28 6.32,6.26 3.47,-0.02 6.27,-2.85 6.26,-6.32 -0.02,-3.48 -2.85,-6.28 -6.33,-6.26z"/>
    </g>
   </g>
  </g>
  <polygon fill="none" fill-rule="nonzero" points="0,768 1366,768 1366,0 0,0 "/>
  <g id="_1405598815504">
   <path fill="url(#id1)" d="M1005.54 387.46l-128.78 0c-10.18,0 -18.42,-8.25 -18.42,-18.43l0 -128.78c0,-10.17 8.24,-18.42 18.42,-18.42l128.78 0c10.18,0 18.42,8.25 18.42,18.42l0 128.78c0,10.18 -8.24,18.43 -18.42,18.43zm-120.21 -159.44l0 95.79 111.64 0 0 -95.79 -111.64 0z"/>
   <polygon fill="#96BFE6" fill-rule="nonzero" points="902.81,353.54 979.49,353.54 979.49,349.75 902.81,349.75 "/>
   <polygon fill="#96BFE6" fill-rule="nonzero" points="913.67,365.47 968.63,365.47 968.63,361.69 913.67,361.69 "/>
   <path fill="url(#id2)" d="M1256.19 545.34l-183.28 0c-11.98,0 -21.7,-9.71 -21.7,-21.7l0 -222.66c0,-11.99 9.72,-21.71 21.7,-21.71l183.28 0c11.99,0 21.7,9.72 21.7,21.71l0 222.66c0,11.99 -9.71,21.7 -21.7,21.7z"/>
   <polygon fill="#4598E6" fill-rule="nonzero" points="1153.99,439.57 1171.97,439.57 1171.97,436.24 1153.99,436.24 "/>
   <polygon fill="#96BFE6" fill-rule="nonzero" points="1085.73,473.2 1190.35,473.2 1190.35,466.75 1085.73,466.75 "/>
   <polygon fill="#96BFE6" fill-rule="nonzero" points="1085.73,504.15 1170.33,504.15 1170.33,497.7 1085.73,497.7 "/>
   <polygon fill="#96BFE6" fill-rule="nonzero" points="1085.73,488.67 1135.33,488.67 1135.33,482.23 1085.73,482.23 "/>
   <path fill="#4598E6" fill-rule="nonzero" d="M1090.79 419.9l-3.26 0 0 21.25 22.43 0 0 -3.26 -19.17 0 0 -17.99zm146.1 0l0 17.99 -19.17 0 0 3.26 22.42 0 0 -21.25 -3.25 0zm-149.36 -92.85l3.26 0 0 -17.99 19.17 0 0 -3.25 -22.43 0 0 21.24zm130.19 -21.24l0 3.25 19.17 0 0 17.99 3.25 0 0 -21.24 -22.42 0z"/>
   <path fill="#4598E6" fill-rule="nonzero" d="M1229.99 469.99c-8.52,0 -15.46,6.93 -15.46,15.46 0,8.53 6.94,15.46 15.46,15.46 8.53,0 15.47,-6.93 15.47,-15.46 0,-8.53 -6.94,-15.46 -15.47,-15.46zm0 34.63c-10.57,0 -19.17,-8.6 -19.17,-19.17 0,-10.57 8.6,-19.17 19.17,-19.17 10.58,0 19.18,8.6 19.18,19.17 0,10.57 -8.6,19.17 -19.18,19.17z"/>
   <polygon fill="#4598E6" fill-rule="nonzero" points="1228.77,493 1220.06,484.29 1222.69,481.66 1228.77,487.75 1237.31,479.21 1239.93,481.84 "/>
   <path fill="url(#id3)" d="M1241.52 654.14c0,8.04 -139.28,14.56 -311.09,14.56 -171.82,0 -311.1,-6.52 -311.1,-14.56 0,-8.04 139.28,-14.56 311.1,-14.56 171.81,0 311.09,6.52 311.09,14.56z"/>
   <g clip-path="url(#id4)">
    <image x="885.15" y="227.75" width="112.04" height="96.25" xlink:href="bg_login_Images\bg_login_ImgID1.png"/>
   </g>
   <path fill="#385369" fill-rule="nonzero" d="M983.79 286.33c-3.68,-9.72 -12.51,-14.19 -16.68,-15.58 -1.48,-0.49 -4.13,-1.36 -6.93,-2.26 -5.03,-1.63 -10.54,-3.4 -10.54,-3.4l-17.37 0c0,0 -6.02,2.02 -12.41,4.26l-0.01 0c-5.89,2.07 -12.09,4.32 -14.18,5.37 -4.37,2.18 -11.72,17.77 -13.2,19.56 -0.77,0.92 -4.18,6.99 -7.53,13.77l18.71 0c1.98,-3.39 3.5,-6.03 3.5,-6.03 0,0 1.19,2.6 2.62,6.03l59.97 0c0.95,-3.98 1.54,-9.01 1.54,-9.01 0,0 3.21,4.37 6.72,9.01l17.28 0c-4.2,-7.05 -9.42,-16.23 -11.49,-21.72z"/>
   <path fill="#EEA886" fill-rule="nonzero" d="M943.03 217.34c0,0 13.58,2.14 11.52,23.4 -2.07,21.26 -14.07,19.51 -14.87,19.49 -0.8,-0.02 -12.03,0.39 -12.91,-25.56 0,0 -0.38,-19.19 16.26,-17.33z"/>
   <path fill="#EEA886" fill-rule="nonzero" d="M954.76 234.74c0,0 1.48,-1.59 2.03,0.02 0.54,1.6 -2.03,8.78 -2.13,9.11 0,0 -0.27,0.63 -0.62,0.29 -0.36,-0.35 0.72,-9.42 0.72,-9.42z"/>
   <path fill="#EEA886" fill-rule="nonzero" d="M927.14 234.47c0,0 -1.46,-1.62 -2.04,-0.02 -0.57,1.6 1.84,8.82 1.95,9.16 0,0 0.26,0.62 0.62,0.29 0.36,-0.34 -0.53,-9.43 -0.53,-9.43z"/>
   <path fill="#434343" fill-rule="nonzero" d="M954.75 238l-1.95 2.6c0,0 0.06,-5.7 -0.26,-6.6 -0.31,-0.89 -0.78,-3.62 -1.04,-4.27 -0.26,-0.64 -11.67,-3.84 -21.75,0.94 0,0 0.45,4.1 -0.52,4.46 -0.96,0.37 -0.49,6.68 -0.49,6.68l-1.6 -1.81c0,0 -2.45,-16.35 -1.84,-18.06 0.6,-1.7 2.53,-11.95 23.2,-5.86 0,0 6.44,-1.37 7.73,3.08 1.3,4.45 -1.48,18.84 -1.48,18.84z"/>
   <path fill="#EEA886" fill-rule="nonzero" d="M951.33 264.71l-1.74 -0.86c-0.85,-1.89 -0.22,-9.88 -0.22,-9.88 0,0 -17.3,-4.4 -16.81,-1.03 0.49,3.36 -1.49,11.19 -1.49,11.19l-8.88 4.4c0,0 9.46,25.4 20.33,22.12 10.87,-3.27 14.97,-23.03 14.97,-23.03l-6.16 -2.91z"/>
   <path fill="#A77860" fill-rule="nonzero" d="M932.81 256.68c0,0 2.79,3.59 7.62,3.59 3.19,0 5.47,-0.89 8.65,-3.98 0,0 -1.38,5.87 -8.62,6.42 0,0 -5.25,0.67 -7.65,-6.03z"/>
   <path fill="#0E2D3D" fill-rule="nonzero" d="M882.85 341.95c0,0 9.99,4.88 7.52,18.17 -2.47,13.28 -3.56,15.07 -0.8,20.26 2.76,5.19 6.02,27.34 3.53,31.53 -2.48,4.2 -30.75,-18.44 -34.68,-37.44 -3.91,-18.99 2.49,-27.44 4.75,-30.59 2.27,-3.15 10.87,-6.4 19.68,-1.93z"/>
   <path fill="#163342" fill-rule="nonzero" d="M879.09 650.26l2.26 0 0 -10.67c0,0 4.44,2.96 7.22,7.05 2.79,4.09 6.62,3.74 12.45,3.48 5.83,-0.26 5.57,-2.61 5.05,-5.92 -0.53,-3.3 -6.45,-4.35 -8.36,-4.87 -1.91,-0.52 -6.26,-8.01 -7.66,-9.84 -1.91,-2.48 -2.91,-4.87 -2.91,-4.87 0,0 -1.09,-4.44 -6.49,0 -5.39,4.44 -3.83,12.97 -3.22,13.75 0.61,0.79 1.66,11.89 1.66,11.89z"/>
   <path fill="#EEA886" fill-rule="nonzero" d="M890.49 639.33c2,1.31 7.22,0 7.22,0 -1.48,-1.92 -10.57,-14.71 -10.57,-14.71 -5.53,-3.22 -7.71,1.21 -7.71,1.21 2.25,0.69 9.06,12.19 11.06,13.5z"/>
   <path fill="#EEA886" fill-rule="nonzero" d="M948.67 442.47c0,0 3.63,0.7 4.86,-1.01 1.06,-1.44 3.46,-2.56 4.2,-2.9 0.99,-0.46 3.5,-3 4.1,-1.76 0.59,1.24 -3.94,4.39 -4.76,5.24 -0.82,0.85 4.44,1.23 5.35,2.06 0.91,0.82 -0.21,9.5 -3.79,8.83 -3.59,-0.68 -6.96,-3.77 -7.62,-3.76 -0.65,0.01 -2.63,-0.39 -2.63,-0.39l0.29 -6.31z"/>
   <path fill="#EEA886" fill-rule="nonzero" d="M961.62 443.74c0,0 10.83,2.8 11.4,3.59 0.56,0.79 0.38,1.37 -0.65,1.15 -1.02,-0.22 -10.54,-2.4 -10.54,-2.4 0,0 12.26,5.46 12.87,6.01 0.35,0.32 0.06,1.46 -0.5,1.39 -0.56,-0.07 -13.02,-4.79 -13.02,-4.79 0,0 11.44,5.13 11.81,5.73 0.32,0.54 -0.21,1.52 -1.09,1.19 -0.87,-0.32 -11.76,-4.47 -11.76,-4.47 0,0 8.09,4.25 8.1,4.95 0.01,0.42 -0.2,1.42 -2.25,0.26 -2.06,-1.16 -7.19,-3.4 -7.19,-3.4l2.82 -9.21z"/>
   <path fill="#163342" fill-rule="nonzero" d="M849.77 650.99l1.39 0 0 -7.83c0,0 2.48,2.55 3.61,6.29 1.13,3.74 5.18,4.85 11.36,4.68 6.18,-0.18 6.26,-2.62 5.74,-6.27 -0.52,-3.66 -5.74,-5.57 -5.74,-5.57 -2.35,-2.09 -8.18,-10.75 -8.18,-10.75 0,0 -3.74,-1 -6.68,1.37 -2.94,2.37 -2.02,7.73 -1.94,9.12 0.09,1.39 0.44,8.96 0.44,8.96z"/>
   <path fill="#1D3B54" fill-rule="nonzero" d="M854.03 464.41c0,0 -7.36,9.57 -9.36,20.93 -1.99,11.36 1.19,49.48 1.1,55.09 -0.09,5.61 -5.31,19.58 -4.27,30.15 1.05,10.58 5.17,63.2 5.17,63.2l11.28 -2.24c0,0 -0.65,-53.65 0,-58.09 0.65,-4.43 1.96,-20.61 2.22,-22.44 0.26,-1.83 16.58,-49.81 16.58,-58 0,-8.19 -4.96,-41.95 -22.72,-28.6z"/>
   <path fill="#1D3B54" fill-rule="nonzero" d="M891.02 468.16c0,0 12.09,46.16 13.53,52.56 1.44,6.39 3.52,11.67 3.52,14.38 0,6.31 -2.34,16.42 -2.34,16.42l-15.36 73.47 -14.63 0c0,0 8.15,-44.08 8.37,-52.69 0.22,-8.64 6.86,-20.91 5.56,-24.56 -1.3,-3.66 -21.02,-45.82 -21.02,-45.82 0,0 -14.92,-47.16 22.37,-33.76z"/>
   <path fill="#EEA886" fill-rule="nonzero" d="M866.13 642.29l-8.18 -10.75 -6.68 1.37c0,0 1.8,4.81 5.04,8.43 3.85,4.29 9.82,0.95 9.82,0.95z"/>
   <path fill="#285173" fill-rule="nonzero" d="M886.02 389.7c0,0 4.99,0.47 8.76,4.51 3.77,4.04 7.3,10.48 8.29,12.63 0.99,2.16 14.82,22.11 15.54,22.56 0.72,0.45 7.67,2.77 12.28,4.32 7.11,2.39 21.36,7.57 21.36,7.57l-2.83 8.97c0,0 -26.8,-8.77 -33.51,-10.43 -8.21,-2.02 -27.11,-26.26 -27.11,-26.26 0,0 -14.08,-16.51 -2.78,-23.87z"/>
   <path fill="#FFBF55" fill-rule="nonzero" d="M877.32 386.21c0,0 6.46,3.05 8.7,3.49 2.24,0.45 10.95,11.76 12.47,15.88 1.53,4.13 0,10.32 -3.13,17.59 -3.15,7.27 -0.19,9.69 -1.62,16.96 -1.44,7.26 -0.98,34.45 -0.71,38.49 0.27,4.04 -41.99,10.15 -50.33,2.8 0,0 5.64,-24.5 12.33,-31.5 1.45,-1.51 1.3,-11.59 0.31,-14.1 -0.99,-2.51 -12.11,-21.26 -12.11,-21.26 0,0 -0.82,-19.02 4.03,-22.79 4.22,-3.28 15.71,-4.44 17.78,-5.16 2.06,-0.72 8.06,-1.03 12.28,-0.4z"/>
   <path fill="#EEA886" fill-rule="nonzero" d="M880.4 378.75c0,0 -0.19,1.78 -0.41,4.18 -0.09,0.95 -0.18,2 -0.27,3.08 -0.25,3.22 -0.46,6.68 -0.34,8.45 0,0 -6.71,6.73 -14.34,-7.85 0,0 3.21,-6.01 0.79,-14.2 -2.42,-8.19 14.57,6.34 14.57,6.34z"/>
   <path fill="#183C59" fill-rule="nonzero" d="M899.19 425.85c0,0 1.62,-10.75 -0.1,-17.28 0,0 0,5.62 -3.08,13.6l3.18 3.68z"/>
   <path fill="#EEA886" fill-rule="nonzero" d="M859.88 387.64c0,0 4.62,13.64 17.29,12.64 12.68,-1.01 6.01,-11.52 6.01,-11.52 0,0 -3.16,-1.81 -4.04,-1.98 -0.89,-0.17 -14.02,-0.34 -14.02,-0.34l-5.24 1.2z"/>
   <path fill="#285173" fill-rule="nonzero" d="M883.18 388.76c0,0 6.65,18.37 6.65,37.09 0,18.72 0.53,49.22 2.85,58.84 2.32,9.63 8.91,39.41 8.91,39.41l5.18 -2.67c0,0 -12.44,-47.53 -13.38,-50.96 -0.94,-3.42 0.71,-39.63 1.61,-42.66 0.89,-3.04 4.68,-16.53 4.09,-20.27 -0.74,-4.72 -5.16,-11.71 -12.29,-17.71l-3.62 -1.07z"/>
   <path fill="#285173" fill-rule="nonzero" d="M862.38 387.07c0,0 4.13,13.22 6.22,30.14 2.09,16.92 -6.42,95.48 -12.12,113.32l-22.12 -3.57c0,0 4.76,-55.53 11.22,-65.64 6.47,-10.1 8.52,-19.04 1.55,-40.14 -6.98,-21.09 3.06,-31.53 3.06,-31.53 0,0 10.26,-2.36 12.19,-2.58z"/>
   <polygon fill="#616161" fill-rule="nonzero" points="886.24,443.11 859.43,489.55 829.62,472.34 855.27,425.23 "/>
   <polygon fill="#E0CEC7" fill-rule="nonzero" points="883.01,444.71 859.2,485.95 832.73,470.67 855.5,428.83 "/>
   <polygon fill="#616161" fill-rule="nonzero" points="874.23,441 875.9,438.11 865.19,431.93 863.1,434.58 "/>
   <path fill="#EEA886" fill-rule="nonzero" d="M872.95 473.95c0,0 -1.22,0.01 -1.76,-0.25 0,0 -0.93,-0.54 -1.62,-0.89 -0.22,-0.11 -0.41,-0.2 -0.55,-0.24 -0.54,-0.2 -1.8,-0.45 -2.98,-1.27 -1.19,-0.82 -5.39,-5.68 -5.39,-5.68l1.99 -3.02 1.45 -3.08c0,0 8.81,0.56 10.01,1.2 0.11,0.07 0.23,0.13 0.33,0.2 0.95,0.64 1.4,1.52 1.86,1.91 0.17,0.15 1.76,1.7 1.71,2.36 -0.08,0.92 -0.51,1.53 -1.06,1.83 0,0 -0.23,1.8 -1.11,2.63 0,0 -0.16,1.66 -1.56,2.39 0,0 -0.34,1.67 -1.32,1.91z"/>
   <path fill="#285173" fill-rule="nonzero" d="M854.78 389.7c0,0 -8.14,-2.33 -12.81,6.64 -4.67,8.98 -4.64,12.8 -5.27,17.19 -0.59,4.13 -3.24,15.43 -3.51,16.59 -0.27,1.17 -6.29,15.08 -3.53,19.94 2.77,4.88 30.96,19.27 30.78,20.34 -0.18,1.08 4.88,-10.87 4.88,-10.87 0,0 -11.4,-6.36 -13.27,-8.31 -3.04,-3.18 -9.44,-6.61 -8.12,-10.55 1.54,-4.63 6.18,-20.26 7.26,-22.55 1.08,-2.29 10.45,-25.5 3.59,-28.42z"/>
   <path fill="#EEA987" fill-rule="nonzero" d="M881.41 343.42c0,0 14.49,4.56 6.62,29.57 -7.87,25.02 -27.66,-2.9 -25.59,-18.14 2.07,-15.24 18.97,-11.43 18.97,-11.43z"/>
   <path fill="#0E2D3D" fill-rule="nonzero" d="M889.51 358.02c0,0 -7.2,7.07 -19.25,7.95 0,0 -4.64,5.43 -4.99,7.56 0,0 -10.76,-18.33 2.46,-29.32 13.22,-10.99 26.64,9.28 21.78,13.81z"/>
   <path fill="#EEA987" fill-rule="nonzero" d="M870.4 366.47c-0.09,-1.82 -1.21,-5.97 -3.92,-4.81 -2.71,1.16 0.17,9.6 1.96,9.08 0,0 2.18,0.03 1.96,-4.27z"/>
   <path fill="#A77860" fill-rule="nonzero" d="M879.99 382.93c-0.09,0.95 -0.18,2 -0.27,3.08 0,0 -6.4,-0.38 -10.67,-9.9 0.28,0.42 4.97,7.3 10.94,6.82z"/>
   <path fill="url(#id5)" d="M721.26 611.7c9.29,-6.54 20.17,-52.09 20.82,-79.22 0.33,-13.9 4.44,-19.69 8.07,-24.8 3.46,-4.88 6.45,-9.1 4.71,-18.78 -3.33,-18.51 5.43,-26.5 5.52,-26.58l-1.02 -1.16c-0.39,0.35 -9.51,8.59 -6.01,28.01 1.63,9.04 -1.06,12.83 -4.46,17.62 -3.56,5.02 -8,11.28 -8.35,25.65 -0.69,29.12 -11.81,72.13 -20.17,78l0.89 1.26z"/>
   <path fill="url(#id6)" d="M672.88 528.08c-5.51,-3.01 -11.41,-3.61 -13.73,-1.41 -1.77,1.67 -0.94,4.54 0.07,6.65 1.93,4.02 4.37,6.51 6.51,8.7 2.99,3.05 5.35,5.46 4.16,10.13 -0.24,0.92 -0.51,1.84 -0.78,2.77 -1.9,6.5 -3.7,12.63 6.25,17.1 2.33,1.05 4.47,1.89 6.36,2.63 7.87,3.09 13.06,5.13 18.63,16.89 1.04,2.19 1.95,4.25 2.83,6.25 4.81,10.9 7.71,17.48 18.23,15.35 3.01,-0.61 4.97,-2.16 5.83,-4.62 2.21,-6.31 -3.07,-17.37 -7.74,-22.92 -0.34,-0.41 -8.36,-10.19 -7.48,-24.18 0.15,-2.27 0.38,-4.37 0.59,-6.21 0.55,-4.89 0.94,-8.43 -0.87,-10.47 -1.66,-1.86 -5.29,-2.71 -11.78,-2.74 -13.02,-0.06 -18.16,-5.44 -22.3,-9.77 -1.65,-1.73 -3.08,-3.22 -4.78,-4.15zm28.9 70.33c-0.88,-1.99 -1.79,-4.05 -2.82,-6.22 -5.31,-11.2 -10.01,-13.05 -17.8,-16.11 -1.91,-0.75 -4.07,-1.59 -6.43,-2.65 -11.17,-5.02 -9,-12.41 -7.1,-18.94 0.27,-0.91 0.54,-1.82 0.77,-2.72 0.98,-3.84 -0.91,-5.76 -3.76,-8.67 -2.13,-2.17 -4.77,-4.86 -6.8,-9.12 -2.23,-4.66 -1.09,-7.15 0.25,-8.43 2.83,-2.68 9.36,-2.19 15.52,1.18 1.92,1.04 3.5,2.69 5.17,4.44 3.93,4.12 8.82,9.24 21.19,9.3 7.05,0.03 10.91,1 12.92,3.25 2.27,2.55 1.84,6.37 1.25,11.66 -0.21,1.83 -0.44,3.9 -0.58,6.14 -0.84,13.36 7.04,23 7.12,23.09 4.71,5.61 10.52,17.26 8.01,24.42 -1.05,3 -3.4,4.89 -6.98,5.62 -1.43,0.29 -2.73,0.42 -3.93,0.42 -8.65,0 -11.82,-7.17 -16,-16.66z"/>
   <path fill="url(#id7)" d="M721.55 623.95l1.53 -0.08c-0.08,-1.45 -2.01,-35.44 -15.66,-45.39 -14.98,-10.91 -19.7,-22.65 -21.95,-30.52 -2.65,-9.28 -16.13,-11.76 -16.7,-11.86l-0.27 1.52c0.13,0.02 13.11,2.41 15.5,10.76 2.31,8.1 7.16,20.15 22.51,31.34 13.07,9.53 15.02,43.88 15.04,44.23z"/>
   <path fill="url(#id8)" d="M765.98 572.42c10.27,-6.76 5.65,-14.13 0.3,-22.68 -4.21,-6.72 -8.98,-14.33 -6.18,-22.34 3.28,-9.36 8.14,-15.05 12.43,-20.06 7.18,-8.41 11.92,-13.96 2.42,-30.74 -8.04,-14.21 -0.13,-26.39 6.23,-36.19 3.9,-6 7.27,-11.19 6.1,-15.36 -0.66,-2.33 -2.73,-4.31 -6.35,-6.04 -0.74,-0.35 -1.49,-0.35 -2.3,0.01 -5.44,2.36 -10.42,18.13 -10.47,18.29l-0.04 0.12 -0.08 0.11c-5.64,7.45 -12.27,6.97 -17.6,6.58 -3.18,-0.24 -5.7,-0.42 -7.21,1.09 -1.49,1.49 -2.04,4.74 -1.68,9.95 1.38,19.93 -9.72,24 -18.64,27.26 -5.01,1.83 -9.34,3.42 -10.82,7.32 -1.58,4.17 0.14,10.67 5.41,20.45 12.59,23.35 5.54,28.9 -1.27,34.28 -5.7,4.5 -11.09,8.74 -4.69,24.13 6.56,15.79 6.25,32.82 6.02,45.26 -0.15,8.48 -0.27,15.19 2.07,16.36 1.37,0.68 4,-0.47 7.8,-3.43 1.52,-3.32 19.55,-41.87 38.55,-54.37zm-47.03 59.17c-3.22,-1.6 -3.1,-8.03 -2.92,-17.76 0.22,-12.3 0.53,-29.15 -5.91,-44.64 -6.84,-16.46 -0.74,-21.28 5.16,-25.93 6.6,-5.21 12.85,-10.13 0.87,-32.34 -5.5,-10.21 -7.25,-17.11 -5.5,-21.72 1.73,-4.56 6.59,-6.34 11.73,-8.22 8.87,-3.25 18.93,-6.93 17.63,-25.72 -0.4,-5.75 0.28,-9.3 2.13,-11.14 2.02,-2 4.98,-1.79 8.41,-1.54 5.19,0.38 11.07,0.82 16.18,-5.86 0.53,-1.67 5.43,-16.57 11.28,-19.11 1.23,-0.54 2.44,-0.54 3.58,0.02 4.04,1.92 6.39,4.22 7.17,7 1.36,4.84 -2.18,10.3 -6.29,16.62 -6.45,9.94 -13.76,21.19 -6.18,34.59 10.03,17.71 4.73,23.92 -2.6,32.49 -4.2,4.92 -8.95,10.49 -12.14,19.58 -2.56,7.31 1.81,14.28 6.03,21.02 5.3,8.45 10.77,17.19 -0.76,24.78 -19.06,12.54 -37.88,53.48 -38.07,53.89l-0.08 0.17 -0.15 0.11c-3.51,2.76 -6.07,4.07 -7.99,4.07 -0.58,0 -1.11,-0.12 -1.58,-0.36z"/>
   <path fill="url(#id9)" d="M688.86 453.16c9.7,-3.33 7.68,15.37 11.78,29.21 4.1,13.84 45.61,6.04 28.19,40.68 -17.43,34.64 22.03,11.58 10.24,41.82 -11.78,30.23 -1.02,62.56 -13.83,54.34 -12.81,-8.23 -7.2,-46.3 -20.52,-50.82 -13.32,-4.53 -15.5,-9.8 -2.31,-22.1 13.2,-12.3 -34.56,-24.51 -22.77,-49.34 11.78,-24.83 -1.99,-39.95 9.22,-43.79z"/>
   <path fill="#FDFBFF" fill-rule="nonzero" d="M720.77 617.22c1.22,-5.17 11.64,-50.72 1.92,-56.23 -8.57,-4.85 -8.36,-23.72 -7.02,-41.54 1.18,-15.78 -19.08,-23.15 -19.94,-23.46l-0.52 1.45c0.21,0.07 20.02,7.29 18.93,21.89 -1.38,18.3 -1.52,37.73 7.79,43 7.38,4.18 0.59,40.79 -2.65,54.54l1.49 0.35z"/>
   <polygon fill="url(#id10)" points="757.38,601 743.53,653.55 712.57,653.55 698.72,601 "/>
   <path fill="url(#id11)" d="M757.38 601c0,0 -30.5,5.73 -30.5,52.55l-14.31 0 -13.85 -52.55 58.66 0z"/>
   <path fill="url(#id12)" d="M1054.34 270.05l0 -0.01 -0.2 0c-0.2,-0.02 -0.39,-0.04 -0.58,-0.06l0 0 -0.02 0c-0.12,-0.02 -0.23,-0.03 -0.35,-0.05l0 -0.01 -0.1 0c-0.11,-0.02 -0.21,-0.04 -0.32,-0.05l0 -0.01 -0.05 0c-0.1,-0.02 -0.21,-0.04 -0.31,-0.06l0 0 -0.01 0c-0.18,-0.04 -0.36,-0.08 -0.54,-0.12l0 0 -0.01 0c-0.08,-0.02 -0.15,-0.04 -0.23,-0.06l0 0 -0.02 0c-0.05,-0.02 -0.11,-0.03 -0.16,-0.05l0 -0.02 -0.06 0c-0.06,-0.01 -0.12,-0.03 -0.18,-0.05l0 -0.01 -0.04 0c-0.13,-0.03 -0.26,-0.07 -0.39,-0.11l0 -0.01 0 0c-0.06,-0.01 -0.12,-0.03 -0.18,-0.05l0 -0.01 -0.01 0c-0.06,-0.02 -0.11,-0.04 -0.17,-0.06l0 0 -0.01 0c-0.09,-0.03 -0.19,-0.07 -0.29,-0.1l0 -0.02 -0.04 0 -0.14 -0.05 0 -0.01 -0.02 0c-0.2,-0.08 -0.39,-0.16 -0.59,-0.24l0 0 0 0c-0.04,-0.02 -0.08,-0.04 -0.12,-0.05l0 -0.01 -0.02 0 -0.1 -0.05 0 -0.01 -0.03 0 -0.09 -0.05 0 -0.01 -0.04 0c-0.31,-0.15 -0.62,-0.31 -0.93,-0.48l0 -0.01 -0.01 0c-0.09,-0.05 -0.19,-0.11 -0.29,-0.17l0 -0.01 -0.02 0c-0.03,-0.02 -0.07,-0.04 -0.1,-0.06l0 0 0 0c-0.06,-0.04 -0.12,-0.07 -0.18,-0.11l0 -0.01 -0.02 0c-0.24,-0.15 -0.48,-0.31 -0.71,-0.47l0 -0.01 -0.02 0c-0.05,-0.04 -0.11,-0.08 -0.16,-0.12l0 0 0 0 -0.06 -0.05 0 -0.02 -0.03 0c-0.05,-0.03 -0.1,-0.07 -0.15,-0.11l0 -0.01 -0.01 0c-0.08,-0.06 -0.16,-0.12 -0.23,-0.18l0 0 0 0c-0.13,-0.09 -0.25,-0.19 -0.37,-0.29l0 -0.01 0 0c-0.17,-0.14 -0.32,-0.28 -0.48,-0.42l0 0 -0.01 0 -0.05 -0.05 0 -0.01 -0.01 0 -0.05 -0.05 0 -0.01 -0.02 0 -0.04 -0.05 0 -0.01 -0.02 0c-0.2,-0.2 -0.4,-0.39 -0.59,-0.59l0 -0.02 -0.01 0 -0.05 -0.05 0 -0.01 -0.01 0 -0.05 -0.05 0 -0.01 0 0c-0.02,-0.02 -0.04,-0.04 -0.06,-0.06l0 0 0 0c-0.15,-0.16 -0.28,-0.32 -0.42,-0.48l0 0 0 0c-0.08,-0.1 -0.16,-0.2 -0.24,-0.3l0 -0.01 -0.01 0c-0.06,-0.07 -0.12,-0.15 -0.18,-0.22l0 -0.02 -0.01 0c-0.05,-0.07 -0.11,-0.15 -0.17,-0.23l0 -0.01 -0.01 0c-0.05,-0.08 -0.11,-0.16 -0.17,-0.24l0 0 0 0c-0.08,-0.12 -0.16,-0.24 -0.24,-0.36l0 -0.01 -0.01 0c-0.04,-0.05 -0.07,-0.11 -0.11,-0.17l0 -0.01 -0.01 0c-0.06,-0.09 -0.11,-0.19 -0.17,-0.28l0 -0.02 -0.01 0c-0.06,-0.1 -0.12,-0.19 -0.17,-0.29l0 -0.01 -0.01 0c-0.1,-0.18 -0.2,-0.36 -0.3,-0.54l0 -0.01 0 0c-0.02,-0.03 -0.04,-0.07 -0.06,-0.11l0 -0.01 0 0c-0.02,-0.04 -0.04,-0.07 -0.06,-0.11l0 -0.01 0 0c-0.02,-0.04 -0.04,-0.07 -0.06,-0.11l0 -0.01 0 0 -0.06 -0.12 0 0 0 0c-0.18,-0.37 -0.34,-0.75 -0.48,-1.13l0 -0.02 -0.01 0c-0.02,-0.05 -0.04,-0.09 -0.05,-0.14l0 -0.04 -0.02 0c-0.03,-0.1 -0.07,-0.2 -0.1,-0.3l0 0 -0.01 0c-0.06,-0.19 -0.12,-0.38 -0.18,-0.58l0 -0.03 -0.01 0c-0.01,-0.06 -0.03,-0.12 -0.05,-0.18l0 0 0 0c-0.02,-0.07 -0.04,-0.15 -0.06,-0.22l0 -0.02 0 0c-0.02,-0.07 -0.04,-0.14 -0.06,-0.22l0 -0.02 0 0c-0.02,-0.08 -0.04,-0.15 -0.06,-0.23l0 -0.02 0 0c-0.04,-0.19 -0.08,-0.38 -0.12,-0.57l0 -0.03 -0.01 0c-0.01,-0.11 -0.03,-0.21 -0.05,-0.32l0 -0.11 -0.02 0c-0.01,-0.09 -0.03,-0.19 -0.04,-0.29l0 -0.07 -0.01 0c-0.05,-0.43 -0.09,-0.86 -0.11,-1.31l0 -0.32 -0.01 0c0,-0.11 -0.01,-0.22 -0.01,-0.34l0 -79.3c0,-0.11 0.01,-0.22 0.01,-0.33l0.01 0 0 -0.33c0.02,-0.44 0.05,-0.87 0.11,-1.3l0.01 0 0 -0.07c0.01,-0.1 0.03,-0.2 0.04,-0.29l0.02 0 0 -0.12c0.02,-0.1 0.03,-0.21 0.05,-0.31l0.01 0 0 -0.04c0.04,-0.19 0.07,-0.38 0.12,-0.56l0 0 0 -0.02c0.02,-0.08 0.04,-0.15 0.06,-0.22l0 0 0 -0.04c0.02,-0.07 0.04,-0.14 0.06,-0.21l0 0 0 -0.03c0.02,-0.07 0.04,-0.14 0.06,-0.21l0 0 0 -0.01c0.06,-0.2 0.12,-0.4 0.18,-0.59l0.01 0 0 -0.01c0.01,-0.06 0.03,-0.12 0.05,-0.18l0.01 0 0 0c0.03,-0.1 0.06,-0.2 0.1,-0.3l0.02 0 0 -0.05c0.01,-0.04 0.03,-0.08 0.05,-0.13l0.01 0 0 -0.03c0.02,-0.05 0.04,-0.1 0.06,-0.15l0 0 0 0c0.11,-0.29 0.23,-0.57 0.36,-0.85l0 0 0 0 0.06 -0.12 0 0 0 -0.01 0.05 -0.11 0.01 0 0 -0.01 0.05 -0.11 0.01 0 0 -0.02c0.02,-0.03 0.04,-0.07 0.05,-0.1l0.01 0 0 -0.02c0.02,-0.03 0.04,-0.07 0.06,-0.1l0 0 0 -0.01 0.06 -0.11 0 0 0 -0.01c0.08,-0.14 0.15,-0.28 0.23,-0.42l0.02 0 0 -0.02c0.02,-0.03 0.04,-0.06 0.06,-0.1l0 0 0 0c0.03,-0.06 0.07,-0.12 0.1,-0.18l0.02 0 0 -0.02c0.02,-0.04 0.04,-0.07 0.06,-0.1l0 0 0 0c0.04,-0.06 0.07,-0.12 0.11,-0.18l0.01 0 0 -0.01c0.11,-0.18 0.23,-0.36 0.35,-0.54l0.01 0 0 -0.01c0.06,-0.07 0.11,-0.15 0.17,-0.23l0.01 0 0 -0.02c0.04,-0.05 0.08,-0.11 0.12,-0.16l0 0 0 0 0.05 -0.06 0.01 0 0 -0.02c0.06,-0.07 0.12,-0.15 0.18,-0.22l0.01 0 0 -0.01c0.19,-0.25 0.39,-0.49 0.6,-0.72l0 0 0 0 0.05 -0.06 0.01 0 0 -0.01c0.02,-0.01 0.03,-0.03 0.05,-0.05l0.01 0 0 -0.01 0.05 -0.05 0.01 0 0 -0.02c0.23,-0.24 0.46,-0.48 0.71,-0.7l0.02 0 0 -0.02 0.04 -0.05 0.02 0 0 -0.01 0.05 -0.05 0.01 0 0 -0.01 0.05 -0.05 0.01 0 0 0c0.16,-0.15 0.32,-0.28 0.48,-0.42l0 0 0 0c0.1,-0.08 0.2,-0.16 0.3,-0.24l0.01 0 0 -0.01c0.07,-0.06 0.15,-0.12 0.22,-0.17l0.02 0 0 -0.01c0.07,-0.06 0.15,-0.12 0.23,-0.18l0.01 0 0 0c0.08,-0.06 0.16,-0.12 0.24,-0.18l0 0 0 0c0.12,-0.08 0.24,-0.16 0.36,-0.24l0 0 0 0c0.06,-0.04 0.12,-0.08 0.18,-0.12l0.01 0 0 0c0.03,-0.02 0.06,-0.04 0.09,-0.06l0.03 0 0 -0.02c0.05,-0.03 0.11,-0.07 0.17,-0.1l0.01 0 0 -0.01c0.1,-0.06 0.19,-0.12 0.29,-0.17l0.01 0 0 -0.01c0.47,-0.26 0.94,-0.5 1.44,-0.72l0.01 0 0 0c0.14,-0.06 0.28,-0.12 0.42,-0.18l0.01 0 0 0c0.05,-0.02 0.09,-0.04 0.14,-0.06l0.04 0 0 -0.01c0.09,-0.04 0.19,-0.08 0.28,-0.11l0.02 0 0 -0.01c0.05,-0.02 0.1,-0.03 0.15,-0.05l0.03 0 0 -0.01c0.05,-0.02 0.1,-0.04 0.15,-0.05l0.03 0 0 -0.01c0.25,-0.09 0.51,-0.16 0.77,-0.23l0.02 0 0 -0.01c0.07,-0.02 0.13,-0.04 0.2,-0.05l0.04 0 0 -0.02c0.07,-0.01 0.14,-0.03 0.21,-0.05l0.03 0 0 0c0.08,-0.02 0.15,-0.04 0.23,-0.06l0.02 0 0 0c0.19,-0.04 0.38,-0.08 0.58,-0.12l0.08 0 0 -0.01c0.09,-0.02 0.19,-0.03 0.28,-0.05l0.08 0 0 -0.01c0.12,-0.02 0.24,-0.03 0.35,-0.05l0.08 0 0 -0.01c0.16,-0.02 0.33,-0.03 0.5,-0.05l0.16 0 0 -0.01c0.38,-0.03 0.77,-0.05 1.16,-0.05l91.39 0c0.39,0 0.77,0.02 1.15,0.05l0 0.01 0.17 0c0.16,0.02 0.33,0.03 0.5,0.05l0 0.01 0.08 0c0.11,0.02 0.23,0.03 0.34,0.05l0 0.01 0.09 0c0.11,0.02 0.22,0.04 0.33,0.06l0 0 0.04 0c0.19,0.04 0.38,0.08 0.57,0.12l0 0 0.02 0c0.08,0.02 0.15,0.04 0.22,0.05l0 0.01 0.05 0c0.06,0.02 0.13,0.04 0.19,0.05l0 0.02 0.05 0c0.07,0.01 0.13,0.03 0.19,0.05l0 0.01 0.04 0c0.07,0.02 0.14,0.04 0.21,0.06l0 0 0 0c0.24,0.07 0.48,0.14 0.72,0.23l0 0.01 0.04 0c0.05,0.02 0.09,0.03 0.14,0.05l0 0.01 0.03 0c0.05,0.02 0.1,0.04 0.16,0.06l0 0 0 0c0.1,0.04 0.2,0.07 0.3,0.11l0 0.01 0.01 0c0.33,0.13 0.64,0.27 0.95,0.42l0 0 0.01 0c0.04,0.02 0.08,0.04 0.12,0.06l0 0 0 0c0.04,0.02 0.08,0.04 0.12,0.06l0 0.01 0 0 0.12 0.05 0 0.01 0 0c0.18,0.09 0.36,0.19 0.54,0.29l0 0.01 0.02 0c0.09,0.05 0.19,0.11 0.29,0.17l0 0.01 0.02 0c0.09,0.06 0.18,0.12 0.28,0.17l0 0.01 0.01 0c0.18,0.12 0.36,0.23 0.53,0.36l0 0 0.01 0c0.08,0.06 0.16,0.11 0.23,0.17l0 0.01 0.03 0c0.05,0.04 0.1,0.08 0.16,0.12l0 0.01 0 0 0.06 0.04 0 0.02 0.02 0c0.05,0.04 0.11,0.08 0.16,0.12l0 0 0 0 0.06 0.04 0 0.02 0.01 0c0.08,0.06 0.16,0.12 0.23,0.18l0 0 0 0c0.14,0.12 0.28,0.24 0.42,0.36l0 0 0 0 0.06 0.06 0 0 0.01 0 0.05 0.05 0 0.01 0.02 0 0.04 0.05 0 0.01 0.03 0c0.3,0.29 0.6,0.58 0.88,0.89l0 0.02 0.02 0 0.04 0.04 0 0.02 0.02 0 0.04 0.05 0 0.01 0.01 0 0.05 0.06 0 0 0.01 0c0.2,0.24 0.41,0.47 0.6,0.72l0 0.01 0.01 0c0.05,0.07 0.11,0.15 0.17,0.23l0 0.01 0.01 0c0.06,0.08 0.12,0.15 0.17,0.23l0 0.01 0.01 0c0.1,0.14 0.2,0.28 0.29,0.43l0 0 0 0c0.11,0.15 0.21,0.31 0.31,0.47l0 0.01 0 0c0.06,0.1 0.12,0.19 0.18,0.29l0 0.01 0.01 0c0.06,0.1 0.11,0.2 0.17,0.3l0 0.01 0 0c0.1,0.18 0.2,0.37 0.3,0.57l0 0.03 0.02 0 0.04 0.09 0 0.03 0.02 0 0.04 0.09 0 0.03 0.02 0 0.04 0.1 0 0.02 0.01 0c0.02,0.04 0.04,0.07 0.05,0.11l0 0.01 0.01 0c0.1,0.23 0.2,0.47 0.3,0.7l0 0.03 0.01 0c0.03,0.1 0.07,0.19 0.11,0.29l0 0.01 0 0c0.02,0.05 0.04,0.11 0.06,0.16l0 0.02 0.01 0c0.01,0.05 0.03,0.1 0.05,0.15l0 0.03 0.01 0c0.06,0.18 0.12,0.36 0.17,0.54l0 0.01 0 0c0.02,0.07 0.04,0.13 0.06,0.2l0 0.04 0.01 0c0.02,0.06 0.03,0.12 0.05,0.18l0 0.06 0.02 0c0.01,0.06 0.03,0.12 0.04,0.18l0 0.01 0 0c0.02,0.07 0.04,0.15 0.06,0.23l0 0.01 0 0c0.05,0.19 0.09,0.38 0.12,0.57l0 0.03 0.01 0c0.02,0.11 0.04,0.21 0.05,0.32l0 0.1 0.02 0c0.02,0.1 0.03,0.2 0.04,0.29l0 0.08 0.01 0c0.02,0.14 0.04,0.28 0.05,0.42l0 0 0 0c0.03,0.25 0.05,0.5 0.06,0.75l0 0.34 0.02 0c0,0.17 0.01,0.34 0.01,0.51l0 79.3c0,0.18 -0.01,0.35 -0.01,0.52l-0.02 0 0 0.34c-0.02,0.39 -0.06,0.79 -0.11,1.17l-0.01 0 0 0.07c-0.01,0.1 -0.03,0.2 -0.04,0.3l-0.02 0 0 0.1c-0.01,0.11 -0.03,0.21 -0.05,0.32l-0.01 0 0 0.02c-0.05,0.26 -0.1,0.51 -0.16,0.77l-0.02 0 0 0.06c-0.01,0.06 -0.03,0.12 -0.04,0.18l-0.02 0 0 0.05c-0.02,0.07 -0.03,0.13 -0.05,0.19l-0.01 0 0 0.04c-0.02,0.07 -0.04,0.13 -0.06,0.2l0 0 0 0c-0.05,0.19 -0.11,0.37 -0.17,0.55l-0.01 0 0 0.02c-0.02,0.05 -0.04,0.11 -0.06,0.16l0 0 0 0.02c-0.02,0.05 -0.04,0.1 -0.06,0.16l0 0 0 0c-0.02,0.04 -0.03,0.08 -0.05,0.12l-0.01 0 0 0.04c-0.02,0.05 -0.04,0.1 -0.06,0.14l0 0 0 0.02c-0.1,0.24 -0.2,0.48 -0.3,0.71l-0.01 0 0 0c-0.01,0.04 -0.03,0.08 -0.05,0.12l-0.01 0 0 0.01 -0.05 0.11 -0.01 0 0 0.02 -0.05 0.1 -0.01 0 0 0.03 -0.04 0.09 -0.02 0 0 0.03c-0.01,0.03 -0.03,0.06 -0.04,0.09l-0.02 0 0 0.03c-0.13,0.26 -0.27,0.51 -0.42,0.76l0 0 0 0.01c-0.04,0.06 -0.07,0.11 -0.1,0.17l-0.02 0 0 0.03c-0.02,0.03 -0.04,0.06 -0.06,0.09l0 0 0 0.01c-0.04,0.06 -0.08,0.11 -0.11,0.17l-0.02 0 0 0.02c-0.11,0.18 -0.23,0.35 -0.35,0.53l-0.01 0 0 0.01c-0.04,0.06 -0.08,0.11 -0.12,0.17l0 0 0 0 -0.04 0.06 -0.02 0 0 0.02c-0.04,0.06 -0.08,0.11 -0.11,0.16l-0.01 0 0 0.01c-0.06,0.08 -0.12,0.16 -0.18,0.23l0 0 0 0c-0.21,0.27 -0.43,0.53 -0.66,0.79l-0.01 0 0 0 -0.05 0.06 -0.01 0 0 0.01 -0.04 0.05 -0.02 0 0 0.02 -0.04 0.04 -0.02 0 0 0.02c-0.25,0.27 -0.5,0.52 -0.77,0.77l-0.02 0 0 0.01 -0.04 0.05 -0.02 0 0 0.01 -0.05 0.05 -0.01 0 0 0c-0.02,0.02 -0.04,0.04 -0.06,0.06l0 0 0 0c-0.23,0.21 -0.47,0.41 -0.71,0.6l-0.01 0 0 0.01c-0.08,0.06 -0.15,0.12 -0.23,0.17l-0.01 0 0 0.02c-0.08,0.05 -0.16,0.11 -0.23,0.17l-0.02 0 0 0.01c-0.08,0.05 -0.16,0.11 -0.24,0.17l0 0 0 0c-0.12,0.08 -0.24,0.16 -0.36,0.24l0 0 0 0c-0.09,0.06 -0.19,0.12 -0.28,0.18l-0.02 0 0 0.02c-0.06,0.03 -0.12,0.07 -0.18,0.1l0 0 0 0.01c-0.04,0.02 -0.07,0.03 -0.1,0.05l-0.03 0 0 0.02c-0.06,0.03 -0.11,0.07 -0.17,0.1l-0.01 0 0 0c-0.42,0.25 -0.86,0.47 -1.3,0.67l-0.03 0 0 0.01c-0.04,0.02 -0.07,0.03 -0.11,0.05l-0.01 0 0 0c-0.19,0.09 -0.38,0.17 -0.58,0.24l-0.02 0 0 0.01 -0.14 0.05 -0.05 0 0 0.02 -0.11 0.04 -0.01 0 0 0c-0.05,0.02 -0.11,0.04 -0.16,0.06l-0.02 0 0 0.01c-0.05,0.02 -0.1,0.04 -0.16,0.05l-0.02 0 0 0.01c-0.12,0.04 -0.24,0.08 -0.36,0.11l0 0 0 0c-0.07,0.03 -0.14,0.04 -0.2,0.06l-0.04 0 0 0.02c-0.06,0.01 -0.12,0.03 -0.18,0.04l-0.01 0 0 0.01c-0.07,0.02 -0.14,0.04 -0.21,0.06l-0.03 0 0 0c-0.07,0.02 -0.15,0.04 -0.22,0.06l-0.02 0 0 0c-0.18,0.04 -0.35,0.08 -0.53,0.12l-0.01 0 0 0c-0.11,0.02 -0.21,0.04 -0.31,0.06l-0.06 0 0 0.01c-0.1,0.01 -0.21,0.03 -0.31,0.05l-0.11 0 0 0.01c-0.11,0.02 -0.23,0.03 -0.34,0.05l-0.02 0 0 0c-0.19,0.02 -0.39,0.04 -0.58,0.06l-0.21 0 0 0.01c-0.34,0.03 -0.68,0.04 -1.03,0.04l-91.39 0c-0.35,0 -0.69,-0.01 -1.04,-0.04z"/>
   <polygon fill="#4598E6" fill-rule="nonzero" points="1095.79,251.15 1105.44,251.15 1105.44,249.36 1095.79,249.36 "/>
   <path fill="#344052" fill-rule="nonzero" d="M1109.34 150.9c0,0 7.78,4.27 5.31,14.77 -2.47,10.5 -3.41,11.88 -1.4,16.12 2.01,4.25 3.77,22.03 1.63,25.28 -2.14,3.25 -23.83,-15.87 -26.24,-31.16 -2.41,-15.29 3.01,-21.79 4.94,-24.21 1.92,-2.43 8.9,-4.7 15.76,-0.8z"/>
   <path fill="#EEA886" fill-rule="nonzero" d="M1123.94 237.68l-8.32 0c-0.41,-4.11 -0.77,-6.97 -0.7,-7.39 0.12,-0.7 -8.28,-22.75 -9.07,-24.58 -0.79,-1.82 -3.87,-6.71 -4.28,-11.31 -0.4,-4.61 5.61,-6.47 5.61,-6.47 8.1,1.45 10.85,12.67 10.85,12.67 0,0 3.4,22.74 5.13,29.14 0.44,1.64 0.67,4.54 0.78,7.94z"/>
   <path fill="#EB4747" fill-rule="nonzero" d="M1119.75 206.08l-12.4 5.22c0,0 -11.39,-28.28 -1.84,-25.12 9.52,3.15 13.81,9.07 14.24,19.9z"/>
   <path fill="#EB4747" fill-rule="nonzero" d="M1116.99 219.39c-0.36,2.81 -1.84,12.75 -1.51,15.44 0.06,0.44 0.24,1.46 0.51,2.85l-29.89 0c0.79,-2.84 1.52,-5.35 1.96,-6.82 1.45,-4.81 0.06,-6.1 -0.68,-9.95 -0.28,-1.51 -1.28,-4.37 -2.38,-7.61 -0.36,-1.08 -0.74,-2.21 -1.11,-3.34 -1.31,-4.07 -1.92,-8.24 -2.3,-10.67 -1.8,-11.5 7.05,-12.6 7.05,-12.6 3.28,-0.61 9.02,-2.38 9.02,-2.38l8.99 1.87c0,0 0.86,0.32 2.11,1.24l0.01 0.01c0.6,0.44 1.29,1.02 2.02,1.77 0.98,1.01 2.94,3.9 4.89,7.07 0.59,0.98 1.2,1.97 1.76,2.96 1.83,3.16 3.13,5.71 3.09,8.59 -0.04,2.84 -3.17,8.76 -3.54,11.57z"/>
   <path fill="#EEA886" fill-rule="nonzero" d="M1106.65 186.18c0,0 5.64,9.63 3.54,10.35 -2.1,0.72 -13.13,-1.71 -17.45,-10.81 0,0 7.25,-3.29 13.91,0.46z"/>
   <path fill="#EEA886" fill-rule="nonzero" d="M1105.85 190.58c0,0 -5.01,2.12 -9.54,-4.85 0,0 1.22,-7.92 -1.35,-12.5 -2.58,-4.58 11.25,5.49 11.25,5.49 0,0 -0.23,0.94 -0.46,2.34 -0.12,0.71 -0.24,1.54 -0.33,2.42 -0.08,0.73 -0.14,1.5 -0.16,2.27 -0.06,1.78 0.06,3.55 0.59,4.83z"/>
   <path fill="#393D63" fill-rule="nonzero" d="M1093.42 201.36c-1.03,5.3 -8.42,11.94 -8.42,11.94 -0.36,-1.08 -0.74,-2.21 -1.1,-3.33 5.1,-3.26 9.52,-8.61 9.52,-8.61z"/>
   <path fill="#EEA886" fill-rule="nonzero" d="M1091.57 205.58c-0.47,1.93 -2.63,21.49 -2.39,22.16 0.14,0.38 1.18,4.91 2.23,9.94l-9.65 0c-0.99,-3.25 -1.58,-5.94 -1.44,-7.46 0.62,-6.6 -1.62,-27.63 -1.62,-27.63 0,0 -2,-12.72 8.56,-14.31 0,0 6.24,0.82 6.61,5.42 0.38,4.62 -1.84,9.96 -2.3,11.88z"/>
   <path fill="#EB4747" fill-rule="nonzero" d="M1077.92 208.28l13.11 3.06c0,0 10.39,-20.18 1.03,-23.86 -9.87,-3.88 -16.5,9.8 -14.14,20.8z"/>
   <path fill="#EEA987" fill-rule="nonzero" d="M1108.13 152.02c0,0 11.39,4.17 4.17,23.82 -7.22,19.65 -21.95,-3.35 -19.72,-15.42 2.22,-12.08 15.55,-8.4 15.55,-8.4z"/>
   <path fill="#344052" fill-rule="nonzero" d="M1114.05 163.96c0,0 -6.01,5.36 -15.66,5.61 0,0 -2.25,5.5 -2.62,7.19 0,0 -9.52,-16.37 1.43,-24.63 10.96,-8.26 20.89,8.4 16.85,11.83z"/>
   <path fill="#EEA987" fill-rule="nonzero" d="M1099.69 170.75c0,-1.45 -0.74,-4.8 -2.94,-3.97 -2.2,0.82 -0.23,7.65 1.22,7.31 0,0 1.74,0.11 1.72,-3.34z"/>
   <path fill="#A77860" fill-rule="nonzero" d="M1105.27 185.42c-5.35,-1.48 -7.42,-6.58 -7.48,-6.75 4.35,5.62 7.63,4.81 7.63,4.81 -0.08,0.73 -0.08,1.19 -0.15,1.94z"/>
   <path fill="#4598E6" fill-rule="nonzero" d="M1061.86 241.57l-1.75 0 0 11.41 12.04 0 0 -1.75 -10.29 0 0 -9.66zm78.43 0l0 9.66 -10.29 0 0 1.75 12.04 0 0 -11.41 -1.75 0zm-80.18 -49.84l1.75 0 0 -9.65 10.29 0 0 -1.75 -12.04 0 0 11.4zm69.89 -11.4l0 1.75 10.29 0 0 9.65 1.75 0 0 -11.4 -12.04 0z"/>
   <polygon fill="#4598E6" fill-rule="nonzero" points="934.71,333.63 947.6,333.63 947.6,331.24 934.71,331.24 "/>
   <path fill="#4598E6" fill-rule="nonzero" d="M888.77 320.84l-2.33 0 0 15.24 16.08 0 0 -2.34 -13.75 0 0 -12.9zm104.76 0l0 12.9 -13.75 0 0 2.34 16.08 0 0 -15.24 -2.33 0zm-107.09 -66.57l2.33 0 0 -12.9 13.75 0 0 -2.33 -16.08 0 0 15.23zm93.34 -15.23l0 2.33 13.75 0 0 12.9 2.33 0 0 -15.23 -16.08 0z"/>
   <path fill="#DECBC4" fill-rule="nonzero" d="M1229.11 418.4l-10.9 0c-0.21,-0.43 -0.36,-0.81 -0.5,-1.12 -3.23,-7.64 -19.91,-25.16 -19.91,-25.16 0,0 0,0.01 0,0.04l0 0.02 0 0.02 -0.04 0.08c0,0.04 -0.01,0.08 -0.03,0.14l-0.02 0.09c-0.01,0.03 -0.02,0.05 -0.03,0.08 -0.68,2.55 -4.04,15.27 -5.72,25.81l-73.79 0c-0.17,-0.97 -0.37,-1.91 -0.6,-2.77 -0.67,-2.62 -1.13,-5.21 -1.42,-7.63 -0.01,-0.12 -0.03,-0.23 -0.03,-0.36 -0.07,-0.44 -0.11,-0.89 -0.15,-1.33 -0.63,-6.62 -0.16,-11.7 -0.12,-12.21 -0.21,0.45 -1.7,5.91 -3.65,12.66 -1.08,3.7 -2.3,7.79 -3.5,11.64l-17.42 0 21.87 -63.08c0.48,-0.38 6.15,-3.12 10.29,-5.09 4.22,-2.02 9.32,-4.97 13.92,-7.49 2.35,-1.29 4.57,-2.46 6.5,-3.34l0.29 -0.13 0 -0.01c3.18,-1.46 5.3,-2.41 5.3,-2.41l0.01 0c0.08,-0.01 0.58,-0.06 1.38,-0.14 4.44,-0.42 18.22,-1.71 22.83,-1.98 0.38,-0.03 0.7,-0.04 0.95,-0.05 0.21,-0.01 0.37,-0.01 0.47,0 0.57,0.04 3.42,1.03 7.15,2.45 0.14,0.05 0.28,0.1 0.43,0.16 0.18,0.07 0.35,0.13 0.53,0.2 0.32,0.12 0.65,0.25 0.98,0.38 0.67,0.27 1.36,0.53 2.05,0.81 0.24,0.09 0.49,0.19 0.74,0.28 7.46,2.96 16.02,6.64 18.05,8.1 1.35,0.96 5.54,8.84 10.38,18.6 5.22,16.72 11.61,40.84 13.71,52.74z"/>
   <path fill="#EEA886" fill-rule="nonzero" d="M1174.97 332.54c-0.2,9.92 -19.41,15.34 -19.41,15.34 0,0 -8.03,-10.07 -6.11,-11.03 0.75,-0.38 1.06,-1.89 1.16,-3.57 0.08,-1.61 -0.02,-3.38 -0.12,-4.5 -0.05,-0.7 -0.11,-1.15 -0.11,-1.15 0,0 2.75,-2.9 6.24,-6.35 6.1,-6.03 14.48,-13.75 14.49,-10.68 0,0.16 -0.02,0.36 -0.06,0.58 -1.48,6.92 3.92,21.36 3.92,21.36z"/>
   <path fill="#A77860" fill-rule="nonzero" d="M1167.57 318l0 0.01c-0.04,0.05 -0.86,1.27 -2.25,3.02 -2.94,3.71 -8.48,9.8 -14.71,12.25 0.08,-1.61 -0.02,-3.38 -0.12,-4.5 -0.63,-0.02 -1.27,-0.09 -1.9,-0.23 1.71,-2.98 4.17,-6.11 4.17,-6.11l3.86 -1.16 10.95 -3.28z"/>
   <path fill="#EEA886" fill-rule="nonzero" d="M1171.25 310.73c-1.66,3.62 -3.23,6.24 -3.68,7.27l0 0.01c-0.29,0.67 -1.08,1.77 -2.25,3.02 -3.16,3.41 -9.04,7.91 -14.83,7.75 -0.63,-0.02 -1.27,-0.09 -1.9,-0.23 -2.34,-0.51 -5.1,-1.59 -6.61,-4.57 -11.98,-23.45 -3.31,-42.63 -3.31,-42.63 0,0 32.76,-9.27 37.89,0.6 3.59,6.91 -1.4,20.29 -5.31,28.78z"/>
   <path fill="#E8734D" fill-rule="nonzero" d="M1138.67 281.35c0,0 -3.04,-0.17 -3.8,-5.94 -0.74,-5.7 0.77,-7.28 0.77,-7.28 0,0 13.52,-5.66 18.38,-6.4 4.85,-0.73 16.8,-1.44 19.6,1.76 0,0 6.8,-1.58 8.65,9.71 2.94,17.91 -10.02,35.31 -10.02,35.31 0,0 0.12,-11.7 -2.47,-13.26 -2.58,-1.55 -4.81,2.14 -4.81,2.14l-5.28 0.95c0,0 8.02,-17.31 -1.59,-17.96 -9.62,-0.64 -13.92,1.97 -19.43,0.97z"/>
   <path fill="#EEA886" fill-rule="nonzero" d="M1165.12 292.73c0.5,-5.16 9.82,-7.13 9.2,-1.72 -0.62,5.4 -5.22,10.59 -7.34,10.41 -2.12,-0.18 -2.24,-4.76 -1.86,-8.69z"/>
   <path fill="#3C4145" fill-rule="nonzero" d="M1219.69 366.14c-3.04,-9.73 -5.67,-17.42 -6.84,-18.26 -2.04,-1.46 -18.21,-5.91 -25.88,-8.92 -0.25,-0.09 -0.5,-0.19 -0.74,-0.28 -0.69,-0.28 -1.38,-0.54 -2.05,-0.81 -0.33,-0.13 -0.66,-0.26 -0.98,-0.38 -0.18,-0.07 -0.35,-0.13 -0.53,-0.2 -0.15,-0.06 -0.29,-0.11 -0.43,-0.16l-0.04 0.04c-0.68,0.77 -4.23,4.8 -8.47,10.84 -7.93,11.27 -18.27,29.54 -16.69,46.4 0.52,5.41 1.14,13.18 2.2,21.91 0.07,0.69 0.16,1.38 0.25,2.08l35.8 0c0.44,-9.13 1.21,-21.15 2.39,-25.81 0.01,-0.03 0.02,-0.05 0.03,-0.08l0.02 -0.09c0,-0.05 0.03,-0.1 0.03,-0.14l0.04 -0.08 0 -0.02 0 -0.02c0,0 8.67,13.54 9.11,26.24l22.53 0c-1.1,-11.79 -4.55,-35.56 -9.75,-52.26z"/>
   <path fill="#3C4145" fill-rule="nonzero" d="M1144.01 339.51c0,0 -2.7,9 -6.19,31.46l0 0.01c-0.13,0.75 -0.24,1.52 -0.36,2.31 -0.01,0.08 -0.03,0.18 -0.04,0.27 -0.09,0.52 -0.16,1.05 -0.24,1.58 -0.01,0.06 -0.02,0.12 -0.03,0.19 -0.06,0.35 -0.11,0.71 -0.16,1.08 -0.13,0.88 -0.27,1.79 -0.4,2.71 -1.31,9.17 -3.05,23.74 -4.83,39.28l-14.15 0c-0.77,-4.31 -1.49,-8.25 -1.43,-10.94 -0.03,0.06 -0.05,0.13 -0.06,0.18 -1.14,3.13 -2.38,6.54 -3.64,9.85 -0.11,0.3 -0.23,0.61 -0.35,0.91l-24.38 0 24.29 -63.55c0.48,-0.38 6.74,-3.75 10.88,-5.71 4.31,-2.06 9.78,-4.6 14.62,-6.83 2.31,-1.07 4.48,-2.07 6.32,-2.91l0.15 0.11z"/>
   <path fill="#51565C" fill-rule="nonzero" d="M1176.91 361.74l-9.34 5.27 4 4.08 -8.77 47.31 -3.31 0c-1.21,-9.56 -1.9,-18.15 -2.45,-23.99 -2.44,-26.08 23.59,-55.49 25.2,-57.28 1.25,0.47 2.6,1 3.99,1.55l-9.32 23.06z"/>
   <path fill="#51565C" fill-rule="nonzero" d="M1144.15 339.27c0,0 -3.49,11.39 -7.55,39.85 -1.3,9.16 -3.06,23.74 -4.84,39.28l-1.37 0 -1.81 -44.7 4.44 -4.83 -3.95 -4.94 8.47 -21.62c2.31,-1.07 4.48,-2.07 6.32,-2.91l0.29 -0.13z"/>
   <path fill="#F5E2D9" fill-rule="nonzero" d="M1182.72 337.24l-7.75 -4.7c0,0 -0.22,4.25 -19.41,15.34l5.45 15.35 21.71 -25.99z"/>
   <path fill="#F5E2D9" fill-rule="nonzero" d="M1150.46 334.68c0,0 0.3,4.58 5.1,13.2l-10.63 13.86 -0.77 -22.48 6.3 -4.58z"/>
   <path fill="#D44040" fill-rule="nonzero" d="M1155.6 347.88c0,0 2.05,8.24 1.32,10.55 0,0 -4.54,1.65 -7.8,-0.41 0,0 2.31,-5.77 6.48,-10.14z"/>
   <path fill="#D44040" fill-rule="nonzero" d="M1153.09 375.91c-2.17,14.8 -2.17,29.78 -1.36,42.49l-9.08 0c-0.12,-1.79 -0.24,-3.66 -0.35,-5.62 -1.69,-29.31 8.67,-55.5 8.67,-55.5l4.62 -1.16c0,0 -1.49,12.95 -2.5,19.79z"/>
   <path fill="#2D3133" fill-rule="nonzero" d="M1116.47 394.17c-0.34,7.04 -0.29,13.28 -0.29,13.28l0 0.01c0,0.03 -0.01,0.22 -0.02,0.54 -0.02,-0.12 -0.04,-0.24 -0.05,-0.36 -1.13,3.14 -2.37,6.54 -3.63,9.85 -0.29,-3.84 -0.37,-7.42 -0.28,-10.73 0.5,-19.72 6.7,-30.06 6.7,-30.06 -1.42,3.43 -2.1,10.81 -2.43,17.47z"/>
   <polygon fill="#292C47" fill-rule="nonzero" points="1031.58,418.49 1002.57,434.44 973.43,388.58 1008.67,376.34 "/>
   <polygon fill="white" fill-rule="nonzero" points="1029.75,417.11 1002.61,432.03 975.36,389.14 1008.32,377.69 "/>
   <path fill="#EEA886" fill-rule="nonzero" d="M1039.68 409.09c0,0 -5.05,-2.41 -7.26,-3.68 -2.22,-1.26 -7.92,-3 -8.38,-3.41 -0.46,-0.41 -16.91,-1.42 -17.91,-2.28 -0.99,-0.86 -1.96,2.01 2.3,2.95 4.26,0.93 10.19,3.21 10.51,4.88 0.33,1.67 -4.37,2.06 -4.85,3.43 -0.47,1.37 0.13,1.06 0.81,1.36 0.67,0.29 5.59,-2.43 7.76,-1.66 2.16,0.78 5.46,-0.29 7.12,0.28 1.66,0.56 9.72,3.27 9.72,3.27l0.18 -5.14z"/>
   <path fill="#EEA886" fill-rule="nonzero" d="M1001.15 428.68c0,0 -4.24,-3.81 -6.29,-5.41 -2.06,-1.6 -5.91,-6.3 -6.48,-6.58 -0.56,-0.27 -7.92,-15.37 -9.12,-15.97 -1.2,-0.61 1.13,-2.64 3.67,1.01 2.54,3.65 7,8.35 8.7,8.01 1.69,-0.34 0.23,-4.93 1.34,-5.91 1.11,-0.98 1.06,-0.29 1.6,0.23 0.54,0.52 -0.11,6.22 1.46,7.96 1.57,1.73 1.84,5.26 3.02,6.61 1.19,1.34 6.88,7.88 6.88,7.88l-4.78 2.17z"/>
   <path fill="#424773" fill-rule="nonzero" d="M1092.53 632.79c0,0 0.92,6.38 1.04,7.33 0.11,0.96 10.21,-0.56 10.21,-0.56l0.81 -7.58c0,0 -10.8,-0.08 -12.06,0.81z"/>
   <path fill="#292C47" fill-rule="nonzero" d="M1093.46 639.31c0,0 -3.2,3.84 -6.29,5.51 -3.1,1.68 -7.96,2.34 -9.79,4.07 -1.32,1.25 -4.81,6.64 8.04,6.53 12.85,-0.11 19.04,0.76 20.42,-1.31 1.38,-2.06 -1.99,-15.23 -1.99,-15.23 0,0 -3.04,1.1 -10.39,0.43z"/>
   <path fill="#424773" fill-rule="nonzero" d="M1020.2 632.79c0,0 0.91,6.38 1.03,7.33 0.11,0.96 10.21,-0.56 10.21,-0.56l0.82 -7.58c0,0 -10.8,-0.08 -12.06,0.81z"/>
   <path fill="#292C47" fill-rule="nonzero" d="M1021.12 639.31c0,0 -3.2,3.84 -6.29,5.51 -3.09,1.68 -14.48,3.05 -16.31,4.78 -1.32,1.26 -3.52,6.29 14.56,5.82 12.85,-0.34 19.05,0.76 20.42,-1.31 1.38,-2.06 -1.99,-15.23 -1.99,-15.23 0,0 -2.87,1.17 -10.39,0.43z"/>
   <path fill="#292C47" fill-rule="nonzero" d="M1084.17 469.1c0,0 9.49,15.07 8.78,28.69 -0.71,13.63 3.44,28.5 4.86,42.73 1.59,15.87 8.09,53.43 8.33,61.91 0.23,8.49 -1.01,35.59 -1.01,35.59l-13.02 0.3c0,0 -10.92,-65.67 -13.76,-72.37 -2.82,-6.7 -16.86,-54.46 -17.33,-59.82 -0.48,-5.36 23.15,-37.03 23.15,-37.03z"/>
   <path fill="#292C47" fill-rule="nonzero" d="M1034.24 471.14c0,0 -7.15,37.34 -8.1,45.68 -0.94,8.34 -1.57,40.35 -2.04,45.56 -0.47,5.21 -3.15,68.2 -5.66,75.94l16.64 0c0,0 12.77,-45.79 12.77,-67.45 0,-21.67 9.86,-47.1 16.23,-61.39 6.37,-14.3 20.95,-14.63 24.86,-41.15 0,0 -49.4,-5.6 -54.7,2.81z"/>
   <path fill="#EEA886" fill-rule="nonzero" d="M1068.34 342.39c0,0 -12.73,-4.76 -18.6,4.94 -5.87,9.69 -5.31,29.09 1.11,31.48 6.42,2.38 16.06,1.14 19.35,-4.93 3.28,-6.06 6.25,-14.83 6.11,-20.69 -0.15,-5.86 -4.62,-9.11 -7.97,-10.8z"/>
   <path fill="#EEA886" fill-rule="nonzero" d="M1052.23 379.25c0,0 0.53,3.44 -0.34,5.13 -0.88,1.7 16.49,1.74 16.49,1.74 0,0 1.41,-9.21 4.09,-16.99 2.67,-7.79 -20.24,10.12 -20.24,10.12z"/>
   <path fill="#3A3F47" fill-rule="nonzero" d="M1072.47 369.13c0,0 -1.2,1.97 -6.09,1.21 -4.9,-0.77 -10.87,-7.28 -12.91,-8 -2.05,-0.71 -2.07,-1.91 -2.07,-1.91l-1.27 1.87 -2.18 0.13c0,0 1.98,-5.82 -1,-8.2 -2.99,-2.37 3.1,-18.85 18.79,-13.36 0,0 12.06,3.32 11.62,10.18 -0.44,6.85 -2.2,14.66 -4.89,18.08z"/>
   <path fill="#E2D2CA" fill-rule="nonzero" d="M1050.86 384.18c0,0 0.05,-3.24 1.52,-3.55 1.46,-0.31 16.19,-1.72 17.99,-1.02l0 3.77c0,0 -3.47,2.14 -19.51,0.8z"/>
   <path fill="#EEA886" fill-rule="nonzero" d="M1051.73 357.93c0.27,-1.15 3.2,-4.43 4.31,-0.91 1.13,3.52 -1.68,8.25 -3.25,7.84 -1.57,-0.4 -1.76,-4.01 -1.06,-6.93z"/>
   <path fill="#323657" fill-rule="nonzero" d="M992.43 422.41l0.02 -0.01c-0.1,0.05 -0.11,0.05 -0.02,0.01z"/>
   <path fill="#FFDF69" fill-rule="nonzero" d="M1094.87 505c0,0 -7.81,2.3 -21.12,3.77 -13.32,1.46 -46.58,-0.53 -46.8,-2.11 -0.21,-1.57 7.16,-58.57 6.74,-61.51 -0.42,-2.93 -0.64,-13.39 -0.64,-13.39 -0.17,2.86 -3.09,14.57 -6.61,20.95 -1.27,2.31 -5.55,9.53 -7.61,7.89 -9.96,-7.95 -25.4,-37.94 -26.37,-38.2 0.82,-0.35 7.31,-3.34 8.22,-3.64 0.8,-0.27 7.99,7.34 12.35,12.06 1.94,2.1 3.32,3.63 3.32,3.63 1.26,-2.83 5.84,-20.66 7.26,-26.83 3.21,-13.92 2.72,-14.5 2.72,-14.5 9.74,-2.95 24.53,-8.94 24.53,-8.94l19.51 -0.8c0,0 17.9,3.95 24.96,7.13 0.66,0.3 0.67,15.97 2.51,20.08l-5.85 12.34c0,0 -3.39,24.43 -4.08,35.3 -0.33,4.99 6.96,46.77 6.96,46.77z"/>
   <path fill="#FFDF69" fill-rule="nonzero" d="M1098.64 430.94c-0.51,1.64 -2.82,3.03 -4.32,3.64 -0.97,0.39 -2.04,0.52 -3.13,0.32l-0.76 -0.15 0 0 -13.37 -2.48c0,0 -2.92,-33.69 18.27,-41.76 0.55,0.18 7.99,25.34 3.31,40.43z"/>
   <path fill="#AB9546" fill-rule="nonzero" d="M1094.32 434.58l0 0c-0.97,0.39 -2.04,0.52 -3.13,0.32l-0.76 -0.15 0 0 1.31 -17.21 2.58 17.04z"/>
   <path fill="#AB9546" fill-rule="nonzero" d="M1016.35 434.45l-1.63 6.92c0,0 -1.78,-6.94 -1.69,-10.55 1.94,2.1 3.32,3.63 3.32,3.63z"/>
   <path fill="#3A3F47" fill-rule="nonzero" d="M1071.97 343.53c0,0 16.68,-2.09 0.28,25.79l-0.28 -25.79z"/>
   <polygon fill="#292C47" fill-rule="nonzero" points="986.84,386.12 985.15,383.21 998.51,378.6 1000.2,381.5 "/>
   <polygon fill="url(#id13)" points="1251.12,261.24 1241.66,261.24 1238.76,255.23 1248.23,255.23 "/>
   <polygon fill="url(#id14)" points="1239.48,261.24 1237.23,261.24 1234.34,255.23 1236.59,255.23 "/>
   <polygon fill="url(#id15)" points="1242.86,254.08 1204.53,254.08 1203.26,251.08 1241.58,251.08 "/>
   <path fill="url(#id16)" d="M998.7 158.28l-14.47 0c-0.49,0 -0.88,-0.39 -0.88,-0.88l0 -3.13c0,-0.48 0.39,-0.88 0.88,-0.88l14.47 0c0.49,0 0.89,0.4 0.89,0.88l0 3.13c0,0.49 -0.4,0.88 -0.89,0.88z"/>
   <path fill="url(#id17)" d="M998.7 170.02l-14.47 0c-0.49,0 -0.88,-0.4 -0.88,-0.88l0 -3.13c0,-0.49 0.39,-0.88 0.88,-0.88l14.47 0c0.49,0 0.89,0.39 0.89,0.88l0 3.13c0,0.48 -0.4,0.88 -0.89,0.88z"/>
   <path fill="url(#id18)" d="M998.7 181.76l-14.47 0c-0.49,0 -0.88,-0.4 -0.88,-0.89l0 -3.12c0,-0.49 0.39,-0.89 0.88,-0.89l14.47 0c0.49,0 0.89,0.4 0.89,0.89l0 3.12c0,0.49 -0.4,0.89 -0.89,0.89z"/>
   <path fill="url(#id19)" d="M1010.03 158.28l-2.85 0c-0.49,0 -0.88,-0.39 -0.88,-0.88l0 -3.13c0,-0.48 0.39,-0.88 0.88,-0.88l2.85 0c0.49,0 0.89,0.4 0.89,0.88l0 3.13c0,0.49 -0.4,0.88 -0.89,0.88z"/>
   <path fill="url(#id20)" d="M1010.03 170.02l-2.85 0c-0.49,0 -0.88,-0.4 -0.88,-0.88l0 -3.13c0,-0.49 0.39,-0.88 0.88,-0.88l2.85 0c0.49,0 0.89,0.39 0.89,0.88l0 3.13c0,0.48 -0.4,0.88 -0.89,0.88z"/>
   <path fill="url(#id21)" d="M1010.03 181.76l-2.85 0c-0.49,0 -0.88,-0.4 -0.88,-0.89l0 -3.12c0,-0.49 0.39,-0.89 0.88,-0.89l2.85 0c0.49,0 0.89,0.4 0.89,0.89l0 3.12c0,0.49 -0.4,0.89 -0.89,0.89z"/>
   <polygon fill="url(#id22)" points="947.15,422.6 964.14,422.6 958.94,411.82 941.95,411.82 "/>
   <polygon fill="url(#id23)" points="939.2,422.6 943.25,422.6 938.05,411.82 934,411.82 "/>
  </g>
 </g>
</svg>
