<?xml version="1.0" encoding="UTF-8"?>
<!DOCTYPE svg PUBLIC "-//W3C//DTD SVG 1.1//EN" "http://www.w3.org/Graphics/SVG/1.1/DTD/svg11.dtd">
<!-- Creator: CorelDRAW 2020 (64-Bit) -->
<svg xmlns="http://www.w3.org/2000/svg" xml:space="preserve" width="814px" height="923px" version="1.1" shape-rendering="geometricPrecision" text-rendering="geometricPrecision" image-rendering="optimizeQuality" fill-rule="evenodd" clip-rule="evenodd"
viewBox="0 0 80.074 90.822"
 xmlns:xlink="http://www.w3.org/1999/xlink"
 xmlns:xodm="http://www.corel.com/coreldraw/odm/2003">
 <defs>
   <radialGradient id="id0" gradientUnits="userSpaceOnUse" gradientTransform="matrix(-1.40253 1.55837 -1.50196 -1.35175 195 -48)" cx="66.462" cy="23.614" r="24.522" fx="66.462" fy="23.614">
    <stop offset="0" stop-opacity="1" stop-color="#00A2E9"/>
    <stop offset="1" stop-opacity="1" stop-color="#2F318B"/>
   </radialGradient>
   <clipPath id="id1">
    <path d="M43.585 0.919l16.471 9.509 16.821 9.711c2.714,1.568 3.204,2.833 3.197,5.874l-0.042 19.044 0 20.798c0,1.404 -0.931,2.923 -2.147,3.625l-17.829 10.294 -18.187 10.5c-1.245,0.719 -2.429,0.713 -3.517,0.085l-18.333 -10.585 -17.721 -10.107c-1.376,-0.784 -2.183,-2.045 -2.2,-5.363l-0.098 -19.203 0 -19.088c0,-2.886 0.892,-4.542 3.197,-5.874l16.822 -9.711 16.651 -9.614c1.997,-1.153 4.919,-1.048 6.915,0.105z"/>
   </clipPath>
 </defs>
 <g id="Layer_x0020_1">
  <metadata id="CorelCorpID_0Corel-Layer"/>
  <path fill="url(#id0)" d="M43.585 0.919l16.471 9.509 16.821 9.711c2.714,1.568 3.204,2.833 3.197,5.874l-0.042 19.044 0 20.798c0,1.404 -0.931,2.923 -2.147,3.625l-17.829 10.294 -18.187 10.5c-1.245,0.719 -2.429,0.713 -3.517,0.085l-18.333 -10.585 -17.721 -10.107c-1.376,-0.784 -2.183,-2.045 -2.2,-5.363l-0.098 -19.203 0 -19.088c0,-2.886 0.892,-4.542 3.197,-5.874l16.822 -9.711 16.651 -9.614c1.997,-1.153 4.919,-1.048 6.915,0.105z"/>
  <g clip-path="url(#id1)">
   <g id="_2977759689312">
    <circle fill="#FEFEFE" cx="29.381" cy="12.188" r="3.199"/>
    <circle fill="#FEFEFE" cx="15.917" cy="47.629" r="4.098"/>
    <circle fill="#FEFEFE" cx="20.462" cy="74.616" r="2.049"/>
    <circle fill="#FEFEFE" cx="65.752" cy="61.286" r="3.048"/>
    <g>
     <g>
      <polygon fill="#FEFEFE" fill-rule="nonzero" points="24.772,83.254 23.82,83.761 22.391,80.892 21.135,77.992 20.046,75.066 19.119,72.117 18.349,69.151 17.73,66.172 17.258,63.185 16.927,60.194 16.732,57.204 16.667,54.219 16.728,51.243 16.908,48.281 17.204,45.337 17.608,42.416 18.117,39.522 18.725,36.66 19.426,33.833 20.216,31.046 21.089,28.304 22.04,25.61 23.064,22.97 24.156,20.387 25.309,17.866 26.521,15.411 27.784,13.026 29.094,10.716 30.446,8.485 31.835,6.338 33.255,4.278 34.702,2.311 36.171,0.439 37.655,-1.331 38.47,-0.625 37.008,1.118 35.561,2.963 34.134,4.904 32.732,6.937 31.361,9.058 30.025,11.262 28.73,13.545 27.481,15.902 26.284,18.329 25.143,20.821 24.064,23.375 23.052,25.985 22.112,28.647 21.249,31.357 20.469,34.11 19.776,36.902 19.176,39.728 18.674,42.584 18.275,45.465 17.983,48.367 17.805,51.286 17.746,54.218 17.809,57.157 18.001,60.1 18.327,63.042 18.791,65.979 19.399,68.906 20.155,71.82 21.066,74.716 22.135,77.589 23.369,80.437 "/>
     </g>
     <g>
      <polygon fill="#FEFEFE" fill-rule="nonzero" points="7.09,71.957 6.023,71.796 6.643,68.319 7.435,64.929 8.391,61.629 9.5,58.418 10.754,55.297 12.143,52.268 13.658,49.332 15.289,46.489 17.028,43.74 18.864,41.086 20.789,38.528 22.794,36.066 24.869,33.702 27.005,31.435 29.192,29.267 31.422,27.199 33.686,25.231 35.974,23.365 38.277,21.6 40.586,19.938 42.892,18.379 45.186,16.924 47.458,15.575 49.7,14.331 51.902,13.194 54.056,12.164 56.153,11.243 58.183,10.43 60.138,9.727 62.009,9.135 63.788,8.655 65.466,8.287 65.669,9.346 64.045,9.702 62.313,10.17 60.484,10.749 58.566,11.438 56.57,12.237 54.506,13.144 52.382,14.16 50.209,15.282 47.995,16.51 45.75,17.844 43.483,19.281 41.203,20.822 38.92,22.466 36.643,24.211 34.381,26.056 32.143,28.002 29.939,30.046 27.777,32.188 25.667,34.427 23.618,36.762 21.639,39.193 19.739,41.717 17.927,44.335 16.213,47.046 14.605,49.848 13.113,52.74 11.745,55.723 10.511,58.795 9.419,61.955 8.479,65.202 7.699,68.536 "/>
     </g>
     <g>
      <path fill="#FEFEFE" fill-rule="nonzero" d="M64.354 60.728l-0.187 1.062 -2.943 -0.575 -2.891 -0.673 -2.836 -0.767 -2.782 -0.856 -2.725 -0.94 -2.668 -1.019 -2.608 -1.094 -2.548 -1.163 -2.486 -1.229 -2.423 -1.289 -2.359 -1.345 -2.294 -1.395 -2.227 -1.442 -2.158 -1.483 -2.09 -1.52 -2.018 -1.551 -1.947 -1.579 -1.874 -1.602 -1.799 -1.619 -1.723 -1.632 -1.647 -1.641 -1.568 -1.645 -1.488 -1.643 -1.408 -1.638 -1.326 -1.628 -1.242 -1.613 -1.158 -1.594 -1.072 -1.569 -0.985 -1.541 -0.896 -1.508 -0.807 -1.471 -0.715 -1.428 0.973 -0.464 0.697 1.391 0.788 1.436 0.878 1.477 0.967 1.513 1.053 1.543 1.14 1.569 1.224 1.589 1.308 1.606 1.389 1.616 1.47 1.623 1.549 1.625 1.627 1.621 1.704 1.614 1.778 1.6 1.853 1.584 1.925 1.561 1.996 1.534 2.066 1.503 2.135 1.467 2.202 1.425 2.267 1.38 2.332 1.329 2.395 1.274 2.457 1.215 2.518 1.149 2.577 1.081 2.634 1.007 2.691 0.928 2.747 0.845 2.8 0.757 2.853 0.665 2.905 0.567zm17.356 0.961l0.153 1.068 -0.421 0.056 -0.433 0.048 -0.446 0.041 -0.457 0.034 -0.467 0.029 -0.477 0.021 -0.485 0.017 -0.493 0.01 -0.499 0.005 -0.505 0 -0.51 -0.005 -0.514 -0.01 -0.516 -0.014 -0.518 -0.018 -0.519 -0.023 -0.519 -0.026 -0.518 -0.029 -0.516 -0.033 -0.513 -0.036 -0.508 -0.039 -0.504 -0.041 -0.497 -0.044 -0.491 -0.046 -0.482 -0.047 -0.474 -0.049 -0.463 -0.051 -0.453 -0.052 -0.441 -0.053 -0.427 -0.054 -0.414 -0.054 -0.399 -0.054 -0.383 -0.055 0.155 -1.067 0.377 0.053 0.393 0.054 0.408 0.053 0.422 0.053 0.435 0.053 0.447 0.051 0.458 0.05 0.467 0.049 0.477 0.047 0.485 0.045 0.491 0.043 0.498 0.041 0.502 0.038 0.506 0.036 0.509 0.032 0.51 0.029 0.512 0.026 0.511 0.022 0.51 0.018 0.507 0.014 0.505 0.009 0.499 0.005 0.495 0 0.488 -0.005 0.48 -0.01 0.472 -0.015 0.462 -0.022 0.452 -0.027 0.439 -0.033 0.427 -0.039 0.413 -0.046 0.397 -0.053z"/>
     </g>
     <g>
      <polygon fill="#FEFEFE" fill-rule="nonzero" points="-4.949,47.31 -5.908,46.815 -4.306,43.875 -2.6,41.052 -0.798,38.346 1.094,35.755 3.068,33.277 5.119,30.911 7.24,28.656 9.424,26.51 11.663,24.471 13.952,22.539 16.283,20.712 18.65,18.987 21.047,17.365 23.466,15.842 25.9,14.418 28.344,13.092 30.79,11.861 33.233,10.724 35.664,9.68 38.078,8.727 40.468,7.864 42.827,7.09 45.149,6.402 47.426,5.799 49.654,5.28 51.824,4.844 53.932,4.488 55.969,4.212 57.929,4.015 59.807,3.894 61.595,3.848 63.289,3.877 63.246,4.955 61.601,4.927 59.856,4.971 58.018,5.089 56.095,5.283 54.094,5.554 52.021,5.904 49.883,6.334 47.687,6.846 45.44,7.44 43.148,8.119 40.819,8.884 38.459,9.736 36.075,10.677 33.673,11.709 31.261,12.831 28.844,14.047 26.43,15.358 24.025,16.764 21.637,18.268 19.27,19.87 16.934,21.572 14.633,23.376 12.374,25.282 10.165,27.293 8.011,29.41 5.92,31.634 3.898,33.966 1.951,36.409 0.086,38.963 -1.69,41.63 -3.37,44.412 "/>
     </g>
    </g>
    <circle fill="#FEFEFE" cx="8.869" cy="28.291" r="2.558"/>
    <path fill="#FEFEFE" d="M28.775 94.061c0,0 -0.513,-1.283 1.31,-3.879 1.823,-2.595 5,-6.907 4.537,-7.779 -0.463,-0.872 -6.683,-5.133 -7.193,-15.795 -0.51,-10.662 7.441,-18.836 7.441,-18.836 0,0 -1.571,-0.762 -1.297,-1.383 0.275,-0.622 0.9,-0.747 0.9,-0.747 0,0 -0.824,-1.251 -0.104,-2.472 0.719,-1.22 2.759,-1.798 2.759,-1.798 0,0 -0.014,-1.924 0.592,-2.952 0.606,-1.027 2.418,-1.22 2.418,-1.22 0,0 -0.175,-2.118 1.169,-2.84 1.344,-0.723 3.2,-0.754 3.2,-0.754 0,0 -0.223,-2.505 1.49,-3.075 1.714,-0.569 2.873,0.502 3.678,0.227 0.804,-0.274 0.809,-0.672 1.798,-0.246 0.989,0.425 2.026,-0.009 2.736,-1.058 0.709,-1.048 0.672,-2.231 0.672,-2.231 0,0 0.629,0.101 0.993,0.651 0.365,0.551 0.436,0.82 0.436,0.82 0,0 3.746,-2.27 6.139,-4.828 -1.397,4.251 -4.253,9.795 -10.091,14.461 -5.252,4.197 -12.076,12.466 -15.922,20.41 -1.672,3.454 -2.788,6.858 -2.976,9.854 -0.191,3.059 0.575,5.695 2.678,7.541 1.501,1.317 3.684,2.222 6.686,2.574l0.022 0.002 0.022 -0.001c0.371,-0.013 0.734,-0.03 1.093,-0.047 0.631,0.122 1.335,0.165 2.156,0.117 1.529,-0.09 2.845,-0.373 3.726,-0.612 0.362,-0.045 0.717,-0.091 1.063,-0.14 -0.367,0.722 -1.812,3.008 -5.939,4.495 -4.956,1.785 -5.599,1.63 -5.599,1.63 0,0 -0.701,8.356 -1.894,10.691 -0.729,1.426 -1.754,2.426 -2.442,2.988 -0.022,-0.037 -6.004,-3.74 -6.158,-3.62l-0.143 0.111c0.013,-0.084 0.028,-0.171 0.044,-0.259zm34.719 -71.467c0.068,-0.096 0.133,-0.193 0.194,-0.29 1.974,-3.114 2.617,-6.076 2.617,-6.076 7.669,14.127 -8.983,20.964 -5.334,27.561 -8.043,6.126 -19.259,8.43 -22.986,20.83 -2.102,6.992 0.238,10.413 2.06,11.917 0.609,0.504 1.176,0.939 1.766,1.29 -2.317,-0.41 -4.045,-1.196 -5.272,-2.273 -1.92,-1.684 -2.618,-4.11 -2.442,-6.932 0.181,-2.884 1.267,-6.187 2.897,-9.555 3.8,-7.848 10.538,-16.012 15.721,-20.155 6.675,-5.335 9.546,-11.814 10.779,-16.317zm-15.006 9.56c-0.366,-0.654 -1.194,-0.887 -1.848,-0.521 -0.654,0.367 -0.887,1.194 -0.521,1.849 0.367,0.654 1.194,0.887 1.848,0.521 0.655,-0.367 0.888,-1.195 0.521,-1.849zm-4.304 3.43c-0.367,-0.655 -1.194,-0.888 -1.848,-0.521 -0.654,0.366 -0.888,1.194 -0.521,1.848 0.366,0.654 1.194,0.887 1.848,0.521 0.654,-0.367 0.888,-1.194 0.521,-1.848zm-3.016 3.485c-0.366,-0.654 -1.194,-0.887 -1.848,-0.521 -0.654,0.367 -0.887,1.194 -0.521,1.849 0.367,0.654 1.194,0.887 1.848,0.521 0.655,-0.367 0.888,-1.194 0.521,-1.849zm-3.347 4.39c-0.367,-0.654 -1.194,-0.887 -1.848,-0.521 -0.654,0.367 -0.888,1.194 -0.521,1.849 0.366,0.654 1.194,0.887 1.848,0.52 0.654,-0.366 0.888,-1.194 0.521,-1.848z"/>
   </g>
  </g>
  <path fill="none" d="M43.585 0.919l16.471 9.509 16.821 9.711c2.714,1.568 3.204,2.833 3.197,5.874l-0.042 19.044 0 20.798c0,1.404 -0.931,2.923 -2.147,3.625l-17.829 10.294 -18.187 10.5c-1.245,0.719 -2.429,0.713 -3.517,0.085l-18.333 -10.585 -17.721 -10.107c-1.376,-0.784 -2.183,-2.045 -2.2,-5.363l-0.098 -19.203 0 -19.088c0,-2.886 0.892,-4.542 3.197,-5.874l16.822 -9.711 16.651 -9.614c1.997,-1.153 4.919,-1.048 6.915,0.105z"/>
 </g>
</svg>
