<?xml version="1.0" encoding="UTF-8"?>
<!DOCTYPE svg PUBLIC "-//W3C//DTD SVG 1.1//EN" "http://www.w3.org/Graphics/SVG/1.1/DTD/svg11.dtd">
<!-- Creator: CorelDRAW 2020 (64-Bit) -->
<svg xmlns="http://www.w3.org/2000/svg" xml:space="preserve" width="582px" height="251px" version="1.1" shape-rendering="geometricPrecision" text-rendering="geometricPrecision" image-rendering="optimizeQuality" fill-rule="evenodd" clip-rule="evenodd"
viewBox="0 0 80.99 34.95"
 xmlns:xlink="http://www.w3.org/1999/xlink"
 xmlns:xodm="http://www.corel.com/coreldraw/odm/2003">
 <g id="Layer_x0020_1">
  <metadata id="CorelCorpID_0Corel-Layer"/>
  <path fill="none" stroke="#261F1E" stroke-width="0.87" stroke-linecap="round" stroke-linejoin="round" stroke-miterlimit="22.9256" d="M0.43 25.35c0,0 31.2,-0.54 37.75,-11.05 0,0 2.85,-3.85 -5.68,-13.87 0,0 2.42,11.06 3.41,17.77 0,0 1.16,8.42 2.62,6.6 0,0 2.09,-8.17 1.15,-7.56 0,0 -0.99,2.72 0.61,3.49 0,0 1.15,0.06 2.14,-0.49 0.99,-0.55 0.85,1.29 0.52,2 -0.33,0.72 -2.64,4.16 1.05,2.73 0,0 3.19,-1.79 3.63,-2.2 0.44,-0.42 2.14,-1.21 2.75,-0.55 0.6,0.66 -0.33,2.94 -0.41,3.16 -0.09,0.22 -3.47,6.02 -1.16,8.8 0,0 1.27,1.4 4.57,-1.54 3.3,-2.94 27.17,-20.54 27.17,-20.54"/>
 </g>
</svg>
